<svg id="Layer_1" data-name="Layer 1" xmlns="http://www.w3.org/2000/svg" xmlns:xlink="http://www.w3.org/1999/xlink" width="1121.48" height="295.71" viewBox="0 0 1121.48 295.71"><defs><style>.cls-1{fill:#c3eefe;}.cls-2{fill:#ccfbf0;}.cls-3{fill:#304752;}.cls-4,.cls-6{fill:none;}.cls-4{stroke:#0a2a66;}.cls-4,.cls-6,.cls-7{stroke-miterlimit:10;}.cls-5{fill:#0a2a66;}.cls-6,.cls-7{stroke:#fff;}.cls-8{fill:url(#linear-gradient);}</style><linearGradient id="linear-gradient" x1="492.72" y1="193.41" x2="652.56" y2="150.58" gradientUnits="userSpaceOnUse"><stop offset="0.03" stop-color="#ccfbf0"/><stop offset="0.14" stop-color="#c4f8ec"/><stop offset="0.3" stop-color="#adf1e1"/><stop offset="0.51" stop-color="#88e5cf"/><stop offset="0.74" stop-color="#54d4b6"/><stop offset="1" stop-color="#14bf96"/></linearGradient></defs><title>UDP segment</title><rect class="cls-1" x="0.11" y="72.15" width="494.82" height="74.68"/><path class="cls-2" d="M494.93,147v91.3s-112.6-6.54-196.32,15.57c-87.85,23.21-141.76,48.61-194.33,40.17S.11,255.18.11,255.18V147Z"/><path d="M210.07,206.07H207.5v-19h2.57Z"/><path d="M220.53,187.08a10.54,10.54,0,0,1,3.14.41,6.1,6.1,0,0,1,2.2,1.19,4.71,4.71,0,0,1,1.31,1.86,6.64,6.64,0,0,1,.43,2.42,6.23,6.23,0,0,1-.47,2.43,5.17,5.17,0,0,1-1.35,1.89,6.44,6.44,0,0,1-2.22,1.24,9.41,9.41,0,0,1-3,.44h-3.05v7.11h-2.56v-19Zm0,9.84a5.78,5.78,0,0,0,1.94-.29,3.94,3.94,0,0,0,1.42-.81,3.36,3.36,0,0,0,.87-1.26,4.34,4.34,0,0,0,.29-1.6,3.64,3.64,0,0,0-1.12-2.84,4.92,4.92,0,0,0-3.4-1h-3.05v7.82Z"/><path d="M253.36,196.58a10.68,10.68,0,0,1-.67,3.88,8.76,8.76,0,0,1-1.91,3,8.53,8.53,0,0,1-3,1.93,10.39,10.39,0,0,1-3.82.68H236.9v-19H244a10.19,10.19,0,0,1,3.82.68,8.39,8.39,0,0,1,3,1.93,8.9,8.9,0,0,1,1.91,3A10.68,10.68,0,0,1,253.36,196.58Zm-2.64,0a9.76,9.76,0,0,0-.47-3.13,6.46,6.46,0,0,0-1.36-2.33,5.67,5.67,0,0,0-2.12-1.46,7.25,7.25,0,0,0-2.78-.5h-4.52V204H244a7.25,7.25,0,0,0,2.78-.51,5.54,5.54,0,0,0,2.12-1.45,6.42,6.42,0,0,0,1.36-2.32A9.76,9.76,0,0,0,250.72,196.58Z"/><path d="M255.81,194.54a7.91,7.91,0,0,1,2.4-1.61,7.49,7.49,0,0,1,2.85-.53,5.21,5.21,0,0,1,2,.37,4.17,4.17,0,0,1,1.48,1,4.63,4.63,0,0,1,.9,1.6,6.81,6.81,0,0,1,.3,2.07v8.59h-1.05a1.1,1.1,0,0,1-.53-.11.82.82,0,0,1-.29-.45l-.26-1.27a12.62,12.62,0,0,1-1,.87,5.7,5.7,0,0,1-1.06.63,5.13,5.13,0,0,1-1.18.4,6.7,6.7,0,0,1-1.4.14,4.71,4.71,0,0,1-1.47-.22,3.32,3.32,0,0,1-1.2-.65,3.07,3.07,0,0,1-.81-1.11,3.84,3.84,0,0,1-.3-1.58,3,3,0,0,1,.44-1.54,3.77,3.77,0,0,1,1.42-1.3,9.43,9.43,0,0,1,2.55-.94,19.56,19.56,0,0,1,3.88-.41v-1.05a3.62,3.62,0,0,0-.68-2.37,2.45,2.45,0,0,0-2-.8,4.38,4.38,0,0,0-1.47.22,6.07,6.07,0,0,0-1,.49c-.29.18-.54.35-.74.49a1.07,1.07,0,0,1-.62.22.63.63,0,0,1-.41-.13,1,1,0,0,1-.29-.31Zm7.63,5.49a20,20,0,0,0-2.78.25,8,8,0,0,0-1.87.54,2.62,2.62,0,0,0-1.05.78,1.73,1.73,0,0,0-.32,1,2.11,2.11,0,0,0,.17.91,1.68,1.68,0,0,0,.47.63,1.73,1.73,0,0,0,.7.36,3.05,3.05,0,0,0,.87.11,5,5,0,0,0,1.14-.12,4.13,4.13,0,0,0,1-.37,5.2,5.2,0,0,0,.87-.57,8.07,8.07,0,0,0,.82-.75Z"/><path d="M273.28,206.28a3.2,3.2,0,0,1-2.44-.89,3.54,3.54,0,0,1-.86-2.56v-8.21h-1.61a.5.5,0,0,1-.36-.13.47.47,0,0,1-.15-.39v-.94l2.2-.28.55-4.15a.49.49,0,0,1,.18-.32.48.48,0,0,1,.36-.13h1.19v4.63h3.89v1.71h-3.89v8.06a1.75,1.75,0,0,0,.41,1.26,1.46,1.46,0,0,0,1.06.41,2.06,2.06,0,0,0,.65-.1,3.45,3.45,0,0,0,.47-.22l.34-.22a.4.4,0,0,1,.24-.1.42.42,0,0,1,.33.23l.69,1.12a4.54,4.54,0,0,1-1.47.9A5.18,5.18,0,0,1,273.28,206.28Z"/><path d="M278.32,194.54a7.67,7.67,0,0,1,2.4-1.61,7.49,7.49,0,0,1,2.85-.53,5.21,5.21,0,0,1,2,.37,4.22,4.22,0,0,1,1.47,1,4.33,4.33,0,0,1,.9,1.6,6.51,6.51,0,0,1,.31,2.07v8.59H287.2a1.07,1.07,0,0,1-.53-.11.82.82,0,0,1-.29-.45l-.27-1.27a11.08,11.08,0,0,1-1,.87,6,6,0,0,1-1.06.63,5.21,5.21,0,0,1-1.19.4,6.63,6.63,0,0,1-1.4.14,4.71,4.71,0,0,1-1.47-.22,3.32,3.32,0,0,1-1.2-.65,2.94,2.94,0,0,1-.8-1.11,3.84,3.84,0,0,1-.3-1.58,3,3,0,0,1,.43-1.54,3.93,3.93,0,0,1,1.42-1.3,9.64,9.64,0,0,1,2.56-.94,19.36,19.36,0,0,1,3.87-.41v-1.05a3.68,3.68,0,0,0-.67-2.37,2.47,2.47,0,0,0-2-.8,4.36,4.36,0,0,0-1.46.22,5.83,5.83,0,0,0-1,.49l-.74.49a1,1,0,0,1-.61.22.63.63,0,0,1-.41-.13,1,1,0,0,1-.3-.31Zm7.62,5.49a20.13,20.13,0,0,0-2.78.25,8.28,8.28,0,0,0-1.87.54,2.51,2.51,0,0,0-1,.78,1.67,1.67,0,0,0-.33,1,2.11,2.11,0,0,0,.18.91,1.58,1.58,0,0,0,.47.63,1.73,1.73,0,0,0,.7.36,3.05,3.05,0,0,0,.87.11,5.11,5.11,0,0,0,1.14-.12,4.05,4.05,0,0,0,1-.37,4.5,4.5,0,0,0,.87-.57,7.13,7.13,0,0,0,.82-.75Z"/><path class="cls-3" d="M209.25,58v.67a.27.27,0,0,1-.06.17.24.24,0,0,1-.19.07h-1.16v2.45h-1V58.89h-4.14a.34.34,0,0,1-.22-.07.35.35,0,0,1-.12-.19l-.12-.59,4.53-6h1.08V58Zm-2.42,0V54.14c0-.11,0-.23,0-.37s0-.27,0-.41L203.49,58Z"/><path class="cls-3" d="M215,55.71a3.42,3.42,0,0,1,.94-.77,2.48,2.48,0,0,1,1.2-.29,2.38,2.38,0,0,1,1.05.23,2.11,2.11,0,0,1,.79.64,3.08,3.08,0,0,1,.5,1,5.09,5.09,0,0,1,.17,1.35,5,5,0,0,1-.2,1.45,3.42,3.42,0,0,1-.56,1.13,2.49,2.49,0,0,1-.89.72,2.7,2.7,0,0,1-1.19.25,2.25,2.25,0,0,1-1.09-.24,2.32,2.32,0,0,1-.78-.69l-.06.6a.27.27,0,0,1-.3.24h-.74V51.77H215Zm0,4a1.94,1.94,0,0,0,.7.6,1.9,1.9,0,0,0,.83.18,1.68,1.68,0,0,0,1.43-.66,3.24,3.24,0,0,0,.49-2,2.92,2.92,0,0,0-.44-1.77,1.48,1.48,0,0,0-1.25-.57,1.75,1.75,0,0,0-1,.26,3,3,0,0,0-.78.73Z"/><path class="cls-3" d="M226.66,54.76,223,63.29a.62.62,0,0,1-.15.2.36.36,0,0,1-.27.08h-.86l1.2-2.61-2.71-6.2h1a.36.36,0,0,1,.24.07.66.66,0,0,1,.12.17l1.76,4.15a4.74,4.74,0,0,1,.17.57c.06-.21.13-.4.2-.58L225.4,55a.37.37,0,0,1,.34-.24Z"/><path class="cls-3" d="M229.7,61.45a1.59,1.59,0,0,1-1.2-.44,1.73,1.73,0,0,1-.42-1.25v-4h-.79a.28.28,0,0,1-.18-.06.3.3,0,0,1-.07-.2V55l1.08-.13.27-2a.26.26,0,0,1,.09-.16.24.24,0,0,1,.17-.06h.59v2.27h1.9v.84h-1.9v4a.87.87,0,0,0,.2.62.73.73,0,0,0,.52.2,1,1,0,0,0,.32,0l.23-.11a1.11,1.11,0,0,0,.16-.11.24.24,0,0,1,.12,0,.2.2,0,0,1,.17.11l.33.55a2.18,2.18,0,0,1-.72.44A2.58,2.58,0,0,1,229.7,61.45Z"/><path class="cls-3" d="M237.65,60.42a2.22,2.22,0,0,1-.51.45,3.82,3.82,0,0,1-.64.32,4.41,4.41,0,0,1-1.43.24,3.25,3.25,0,0,1-1.26-.23,2.8,2.8,0,0,1-1-.67,3.26,3.26,0,0,1-.66-1.1,4.65,4.65,0,0,1-.23-1.51,3.88,3.88,0,0,1,.21-1.29,3,3,0,0,1,.61-1,2.85,2.85,0,0,1,1-.69,3.28,3.28,0,0,1,1.28-.25,3,3,0,0,1,1.1.2,2.63,2.63,0,0,1,.87.57,2.58,2.58,0,0,1,.58.93,3.68,3.68,0,0,1,.2,1.25.91.91,0,0,1-.05.36.26.26,0,0,1-.23.09h-4.4a3.82,3.82,0,0,0,.18,1.09,2.19,2.19,0,0,0,.42.77,1.65,1.65,0,0,0,.65.46,2.3,2.3,0,0,0,.85.15,2.39,2.39,0,0,0,.75-.1,3.59,3.59,0,0,0,.54-.21l.38-.22a.48.48,0,0,1,.26-.1.26.26,0,0,1,.23.11Zm-.94-3.09a2.21,2.21,0,0,0-.11-.74,1.78,1.78,0,0,0-.33-.57,1.44,1.44,0,0,0-.53-.38,1.8,1.8,0,0,0-.71-.13,1.82,1.82,0,0,0-1.32.48,2.29,2.29,0,0,0-.6,1.34Z"/><path class="cls-3" d="M243,55.84a.27.27,0,0,1-.25.15.61.61,0,0,1-.22-.07,2,2,0,0,0-.3-.16,2.81,2.81,0,0,0-.42-.17,2.08,2.08,0,0,0-.59-.07,1.79,1.79,0,0,0-.53.07,1.27,1.27,0,0,0-.4.21.89.89,0,0,0-.25.3.81.81,0,0,0-.09.37.64.64,0,0,0,.15.43,1.32,1.32,0,0,0,.39.29,4.65,4.65,0,0,0,.54.22l.63.2q.32.11.63.24a2.08,2.08,0,0,1,.54.32,1.53,1.53,0,0,1,.39.48,1.42,1.42,0,0,1,.15.68,2.14,2.14,0,0,1-.17.84,1.76,1.76,0,0,1-.48.67,2.12,2.12,0,0,1-.78.44,3.14,3.14,0,0,1-1.06.17,3.34,3.34,0,0,1-2.2-.8l.27-.44a.4.4,0,0,1,.13-.13.24.24,0,0,1,.18,0,.4.4,0,0,1,.24.09l.32.2a1.89,1.89,0,0,0,.45.2,2.1,2.1,0,0,0,.67.1,1.78,1.78,0,0,0,.59-.09,1.22,1.22,0,0,0,.42-.24.91.91,0,0,0,.25-.34,1.16,1.16,0,0,0,.08-.42.68.68,0,0,0-.15-.45,1.2,1.2,0,0,0-.38-.31,3.5,3.5,0,0,0-.55-.22l-.63-.2a5.85,5.85,0,0,1-.63-.23,2,2,0,0,1-.55-.34,1.5,1.5,0,0,1-.39-.5,1.53,1.53,0,0,1-.14-.71,1.72,1.72,0,0,1,.61-1.34,2,2,0,0,1,.73-.42,3.26,3.26,0,0,1,2.16,0,2.85,2.85,0,0,1,.9.56Z"/><path class="cls-3" d="M248.8,57.25a10.46,10.46,0,0,0,1.39,5.2.39.39,0,0,1,.06.31.65.65,0,0,1-.15.18l-.52.31a14,14,0,0,1-.83-1.48,11.09,11.09,0,0,1-.55-1.48,11,11,0,0,1-.31-1.49,13.31,13.31,0,0,1,0-3.09,10.12,10.12,0,0,1,.86-3,13.15,13.15,0,0,1,.83-1.49l.52.32a.5.5,0,0,1,.15.17.37.37,0,0,1-.06.3,10.54,10.54,0,0,0-1.39,5.2Z"/><path class="cls-3" d="M251.53,54.55a3.56,3.56,0,0,1,.35-1.13,2.67,2.67,0,0,1,1.58-1.32,3.31,3.31,0,0,1,1.11-.18,3.46,3.46,0,0,1,1.09.17,2.75,2.75,0,0,1,.86.48,2.12,2.12,0,0,1,.56.76,2.24,2.24,0,0,1,.21,1,2.43,2.43,0,0,1-.12.79,1.87,1.87,0,0,1-.32.61,2,2,0,0,1-.51.44,3.41,3.41,0,0,1-.67.3,2.49,2.49,0,0,1,1.37.8,2.21,2.21,0,0,1,.45,1.42,2.7,2.7,0,0,1-.24,1.16,2.48,2.48,0,0,1-.67.87,2.86,2.86,0,0,1-1,.55,3.7,3.7,0,0,1-1.21.2,3.63,3.63,0,0,1-1.26-.19,2.5,2.5,0,0,1-.89-.51,2.39,2.39,0,0,1-.6-.77,5.87,5.87,0,0,1-.4-1l.5-.21a.64.64,0,0,1,.38-.05.36.36,0,0,1,.27.22l.21.43a2.22,2.22,0,0,0,.35.49,2,2,0,0,0,.56.4,2,2,0,0,0,.87.16,2.1,2.1,0,0,0,.86-.16,2,2,0,0,0,.61-.41,1.72,1.72,0,0,0,.36-.57,1.53,1.53,0,0,0,.13-.62,2.5,2.5,0,0,0-.1-.69,1.26,1.26,0,0,0-.36-.53,1.83,1.83,0,0,0-.74-.36A4.35,4.35,0,0,0,254,57v-.84a3.72,3.72,0,0,0,1-.13,1.88,1.88,0,0,0,.68-.34,1.21,1.21,0,0,0,.39-.51,1.78,1.78,0,0,0,.12-.67,1.9,1.9,0,0,0-.13-.7,1.37,1.37,0,0,0-.35-.49,1.4,1.4,0,0,0-.52-.29,2.2,2.2,0,0,0-1.31,0,1.72,1.72,0,0,0-1.14,1.29.61.61,0,0,1-.21.3.54.54,0,0,1-.37,0Z"/><path class="cls-3" d="M264.64,60.24a.41.41,0,0,1,.3.12.38.38,0,0,1,.11.28v.7h-6.22V61a.8.8,0,0,1,.05-.26.89.89,0,0,1,.17-.24l3-3c.25-.25.47-.5.68-.73a5.5,5.5,0,0,0,.52-.7,3.5,3.5,0,0,0,.33-.71,2.43,2.43,0,0,0,.11-.77,1.81,1.81,0,0,0-.13-.72,1.41,1.41,0,0,0-.35-.51,1.53,1.53,0,0,0-.53-.3,2.2,2.2,0,0,0-1.31,0,1.72,1.72,0,0,0-1.14,1.29.51.51,0,0,1-.21.3.54.54,0,0,1-.37,0l-.61-.1a3.56,3.56,0,0,1,.35-1.13,2.84,2.84,0,0,1,.67-.82,2.69,2.69,0,0,1,.91-.5,3.51,3.51,0,0,1,2.22,0,2.69,2.69,0,0,1,.89.51,2.33,2.33,0,0,1,.59.82,2.68,2.68,0,0,1,.21,1.09,2.93,2.93,0,0,1-.15,1,4.48,4.48,0,0,1-.42.85,7.39,7.39,0,0,1-.62.79c-.23.25-.48.51-.74.77l-2.45,2.51a4.82,4.82,0,0,1,.52-.11,3.15,3.15,0,0,1,.52,0Z"/><path class="cls-3" d="M271.17,55.71a3.42,3.42,0,0,1,.94-.77,2.48,2.48,0,0,1,1.2-.29,2.38,2.38,0,0,1,1.05.23,2.11,2.11,0,0,1,.79.64,3.08,3.08,0,0,1,.5,1,5.09,5.09,0,0,1,.17,1.35,5,5,0,0,1-.2,1.45,3.42,3.42,0,0,1-.56,1.13,2.49,2.49,0,0,1-.89.72,2.7,2.7,0,0,1-1.19.25,2.25,2.25,0,0,1-1.09-.24,2.32,2.32,0,0,1-.78-.69l-.06.6a.27.27,0,0,1-.3.24H270V51.77h1.16Zm0,4a1.94,1.94,0,0,0,.7.6,1.9,1.9,0,0,0,.83.18,1.68,1.68,0,0,0,1.43-.66,3.24,3.24,0,0,0,.49-2,2.92,2.92,0,0,0-.44-1.77,1.48,1.48,0,0,0-1.25-.57,1.75,1.75,0,0,0-1,.26,3,3,0,0,0-.78.73Z"/><path class="cls-3" d="M278.76,52.69a.88.88,0,0,1-.07.32,1.15,1.15,0,0,1-.19.26,1,1,0,0,1-.26.18.87.87,0,0,1-.32.06.83.83,0,0,1-.32-.06,1.2,1.2,0,0,1-.26-.18,1.06,1.06,0,0,1-.17-.26.77.77,0,0,1,0-.64,1,1,0,0,1,.17-.27,1.2,1.2,0,0,1,.26-.18.83.83,0,0,1,.32-.06.87.87,0,0,1,.32.06,1,1,0,0,1,.26.18,1,1,0,0,1,.19.27A.88.88,0,0,1,278.76,52.69Zm-.25,2.07v6.58h-1.16V54.76Z"/><path class="cls-3" d="M282.43,61.45a1.59,1.59,0,0,1-1.2-.44,1.73,1.73,0,0,1-.42-1.25v-4H280a.28.28,0,0,1-.18-.06.26.26,0,0,1-.07-.2V55l1.08-.13.26-2a.42.42,0,0,1,.09-.16.28.28,0,0,1,.18-.06H282v2.27h1.9v.84H282v4a.83.83,0,0,0,.2.62.7.7,0,0,0,.52.2,1,1,0,0,0,.31,0,1,1,0,0,0,.23-.11l.17-.11a.19.19,0,0,1,.12,0,.19.19,0,0,1,.16.11l.34.55a2.18,2.18,0,0,1-.72.44A2.58,2.58,0,0,1,282.43,61.45Z"/><path class="cls-3" d="M288.9,55.84a.25.25,0,0,1-.24.15.55.55,0,0,1-.22-.07,2,2,0,0,0-.3-.16,2.57,2.57,0,0,0-.43-.17,2,2,0,0,0-.58-.07,1.74,1.74,0,0,0-.53.07,1.27,1.27,0,0,0-.4.21.89.89,0,0,0-.25.3.81.81,0,0,0-.09.37.64.64,0,0,0,.15.43,1.16,1.16,0,0,0,.38.29,4.84,4.84,0,0,0,.55.22l.63.2a6.62,6.62,0,0,1,.62.24,2,2,0,0,1,.55.32,1.53,1.53,0,0,1,.39.48,1.55,1.55,0,0,1,.14.68,2.13,2.13,0,0,1-.16.84,1.88,1.88,0,0,1-.48.67,2.12,2.12,0,0,1-.78.44,3.16,3.16,0,0,1-1.07.17,3.26,3.26,0,0,1-1.24-.23,3.16,3.16,0,0,1-1-.57l.27-.44a.3.3,0,0,1,.12-.13.27.27,0,0,1,.18,0,.45.45,0,0,1,.25.09,3.71,3.71,0,0,0,.32.2,1.89,1.89,0,0,0,.45.2,2.08,2.08,0,0,0,.66.1,1.74,1.74,0,0,0,.59-.09,1.37,1.37,0,0,0,.43-.24,1,1,0,0,0,.25-.34,1.16,1.16,0,0,0,.08-.42.68.68,0,0,0-.15-.45,1.37,1.37,0,0,0-.39-.31,3.15,3.15,0,0,0-.55-.22l-.63-.2c-.21-.07-.42-.14-.63-.23a2.4,2.4,0,0,1-.55-.34,1.36,1.36,0,0,1-.38-.5,1.52,1.52,0,0,1-.15-.71,1.66,1.66,0,0,1,.16-.73,1.76,1.76,0,0,1,.45-.61,2.14,2.14,0,0,1,.74-.42,3,3,0,0,1,1-.16,3.13,3.13,0,0,1,1.17.21,2.8,2.8,0,0,1,.89.56Z"/><path class="cls-3" d="M291.37,57.25a10.64,10.64,0,0,0-.35-2.7,10.33,10.33,0,0,0-1-2.5.44.44,0,0,1-.06-.17.28.28,0,0,1,0-.13l.06-.1.1-.07.51-.32a11.76,11.76,0,0,1,.83,1.49,9.75,9.75,0,0,1,.55,1.47,9.62,9.62,0,0,1,.31,1.49,12,12,0,0,1,0,3.09,9.62,9.62,0,0,1-.31,1.49,9.86,9.86,0,0,1-.55,1.48,12.4,12.4,0,0,1-.83,1.48l-.51-.31-.1-.08-.06-.1a.28.28,0,0,1,0-.13.54.54,0,0,1,.06-.18A10.26,10.26,0,0,0,291,60,10.66,10.66,0,0,0,291.37,57.25Z"/><line class="cls-4" x1="190.97" y1="56.76" x2="6.08" y2="56.76"/><polygon class="cls-5" points="8.89 53.06 7.32 56.76 8.89 60.46 0.11 56.76 8.89 53.06"/><line class="cls-4" x1="302.09" y1="56.76" x2="488.53" y2="56.76"/><polygon class="cls-5" points="485.72 60.46 487.29 56.76 485.72 53.06 494.5 56.76 485.72 60.46"/><path d="M195.18,118.53H192.6v-19h2.58Z"/><path d="M205.63,99.54a10.52,10.52,0,0,1,3.14.42,5.86,5.86,0,0,1,2.2,1.18,4.71,4.71,0,0,1,1.31,1.86,6.44,6.44,0,0,1,.43,2.42,6.16,6.16,0,0,1-.46,2.43,5.32,5.32,0,0,1-1.36,1.89,6.33,6.33,0,0,1-2.21,1.24,9.5,9.5,0,0,1-3.05.45h-3v7.1H200v-19Zm0,9.85a5.73,5.73,0,0,0,1.94-.3,3.86,3.86,0,0,0,1.42-.81,3.29,3.29,0,0,0,.87-1.25,4.19,4.19,0,0,0,.29-1.61,3.62,3.62,0,0,0-1.12-2.83,4.9,4.9,0,0,0-3.4-1h-3v7.82Z"/><path d="M237.39,99.54v19h-2.57v-8.64H224.57v8.64H222v-19h2.57V108h10.25V99.54Z"/><path d="M252.17,116.65a4.45,4.45,0,0,1-1,.92,6.28,6.28,0,0,1-1.3.64,8,8,0,0,1-1.44.38,9.33,9.33,0,0,1-1.47.13,6.91,6.91,0,0,1-2.57-.47,5.81,5.81,0,0,1-2-1.38,6.43,6.43,0,0,1-1.33-2.25,9.08,9.08,0,0,1-.47-3.07,7.8,7.8,0,0,1,.43-2.63,6,6,0,0,1,1.24-2.11,5.55,5.55,0,0,1,2-1.41,6.48,6.48,0,0,1,2.62-.51,6.07,6.07,0,0,1,2.24.41,5.09,5.09,0,0,1,1.77,1.16,5.47,5.47,0,0,1,1.18,1.89,7.18,7.18,0,0,1,.42,2.55,1.51,1.51,0,0,1-.12.74.51.51,0,0,1-.45.19h-9a7.58,7.58,0,0,0,.35,2.21,4.48,4.48,0,0,0,.87,1.57,3.52,3.52,0,0,0,1.32.94,4.52,4.52,0,0,0,1.73.31,5.31,5.31,0,0,0,1.53-.2,7.81,7.81,0,0,0,1.1-.45,8.38,8.38,0,0,0,.78-.44,1,1,0,0,1,.53-.21.54.54,0,0,1,.46.23Zm-1.91-6.3a4.77,4.77,0,0,0-.23-1.5,3.35,3.35,0,0,0-.68-1.18,2.92,2.92,0,0,0-1.08-.77,4.09,4.09,0,0,0-4.13.72,4.59,4.59,0,0,0-1.22,2.73Z"/><path d="M254.93,107a7.54,7.54,0,0,1,2.39-1.6,7.32,7.32,0,0,1,2.86-.53,5.06,5.06,0,0,1,2,.37,4.07,4.07,0,0,1,1.47,1,4.43,4.43,0,0,1,.9,1.61,6.7,6.7,0,0,1,.3,2.06v8.59h-1a1.07,1.07,0,0,1-.53-.11.75.75,0,0,1-.3-.45l-.26-1.27a12.56,12.56,0,0,1-1,.87,6.44,6.44,0,0,1-1.07.64,5.63,5.63,0,0,1-1.18.39,6.09,6.09,0,0,1-1.4.14,4.71,4.71,0,0,1-1.47-.22,3.32,3.32,0,0,1-1.2-.65,3.07,3.07,0,0,1-.81-1.11,3.81,3.81,0,0,1-.3-1.58,3,3,0,0,1,.44-1.53,3.79,3.79,0,0,1,1.42-1.31,9.08,9.08,0,0,1,2.56-.93,19.29,19.29,0,0,1,3.87-.42v-1a3.57,3.57,0,0,0-.68-2.36,2.42,2.42,0,0,0-2-.81,4.38,4.38,0,0,0-1.47.22,6.07,6.07,0,0,0-1,.49l-.74.49a1,1,0,0,1-.62.22.71.71,0,0,1-.41-.12,1.42,1.42,0,0,1-.29-.31Zm7.62,5.49a18.55,18.55,0,0,0-2.78.26,7.69,7.69,0,0,0-1.87.53,2.51,2.51,0,0,0-1,.78,1.69,1.69,0,0,0-.33,1,2.32,2.32,0,0,0,.17.92,1.86,1.86,0,0,0,.47.63,1.92,1.92,0,0,0,.7.35,3,3,0,0,0,.87.12,5,5,0,0,0,1.14-.13,4.1,4.1,0,0,0,1-.36,5.91,5.91,0,0,0,.87-.57,8.21,8.21,0,0,0,.82-.76Z"/><path d="M279.55,99v19.52h-1.4a.6.6,0,0,1-.64-.49l-.21-1.63a7.35,7.35,0,0,1-2,1.67,5.05,5.05,0,0,1-2.55.64,4.78,4.78,0,0,1-2.09-.45,4.26,4.26,0,0,1-1.6-1.3,6.15,6.15,0,0,1-1-2.15,11.45,11.45,0,0,1-.35-3,9.44,9.44,0,0,1,.39-2.76,7.06,7.06,0,0,1,1.14-2.22,5.25,5.25,0,0,1,4.26-2,4.84,4.84,0,0,1,2.11.41,5.21,5.21,0,0,1,1.57,1.16V99Zm-2.36,9.29a3.8,3.8,0,0,0-1.43-1.24,4.13,4.13,0,0,0-1.72-.35,3.39,3.39,0,0,0-2.88,1.34,6.24,6.24,0,0,0-1,3.81,9.73,9.73,0,0,0,.22,2.25,4.37,4.37,0,0,0,.66,1.54,2.69,2.69,0,0,0,1.08.88,3.46,3.46,0,0,0,1.44.28,3.87,3.87,0,0,0,2-.53,5.74,5.74,0,0,0,1.59-1.5Z"/><path d="M294.19,116.65a4.89,4.89,0,0,1-1.05.92,6.12,6.12,0,0,1-1.31.64,7.62,7.62,0,0,1-1.44.38,9.12,9.12,0,0,1-1.47.13,6.9,6.9,0,0,1-2.56-.47,5.81,5.81,0,0,1-2-1.38,6.43,6.43,0,0,1-1.33-2.25,9.08,9.08,0,0,1-.48-3.07,7.8,7.8,0,0,1,.43-2.63,6.16,6.16,0,0,1,1.24-2.11,5.68,5.68,0,0,1,2-1.41,6.45,6.45,0,0,1,2.62-.51,6,6,0,0,1,2.23.41,5.13,5.13,0,0,1,1.78,1.16,5.31,5.31,0,0,1,1.17,1.89,7,7,0,0,1,.43,2.55,1.51,1.51,0,0,1-.12.74.51.51,0,0,1-.45.19h-9a7.92,7.92,0,0,0,.36,2.21,4.31,4.31,0,0,0,.86,1.57,3.63,3.63,0,0,0,1.33.94,4.5,4.5,0,0,0,1.72.31,5.31,5.31,0,0,0,1.53-.2,7.5,7.5,0,0,0,1.11-.45,8.38,8.38,0,0,0,.78-.44,1,1,0,0,1,.53-.21.51.51,0,0,1,.45.23Zm-1.91-6.3a4.49,4.49,0,0,0-.24-1.5,3.33,3.33,0,0,0-.67-1.18,3.09,3.09,0,0,0-1.08-.77,3.68,3.68,0,0,0-1.45-.27,3.62,3.62,0,0,0-2.68,1,4.6,4.6,0,0,0-1.23,2.73Z"/><path d="M299.53,107.79a6.07,6.07,0,0,1,1.56-2.15,3.39,3.39,0,0,1,2.27-.77,3.59,3.59,0,0,1,.81.09,2.2,2.2,0,0,1,.7.29L304.7,107a.39.39,0,0,1-.4.33,2.72,2.72,0,0,1-.54-.07,3.37,3.37,0,0,0-.81-.08,3.33,3.33,0,0,0-1.14.18,2.78,2.78,0,0,0-.88.55,3.63,3.63,0,0,0-.71.9,8.85,8.85,0,0,0-.56,1.23v8.48h-2.37V105.1h1.35a.75.75,0,0,1,.53.15.93.93,0,0,1,.2.5Z"/><line class="cls-6" y1="146.52" x2="495.82" y2="146.52"/><rect class="cls-1" x="626.66" y="71.67" width="494.82" height="63.56"/><line class="cls-6" x1="626.66" y1="103.3" x2="1121.48" y2="103.3"/><line class="cls-6" x1="874.08" y1="71.67" x2="874.19" y2="134.73"/><path d="M706.92,84.34a.39.39,0,0,1-.13.15.28.28,0,0,1-.16.05.5.5,0,0,1-.26-.11,3.43,3.43,0,0,0-.37-.24,2.72,2.72,0,0,0-.54-.25,2.46,2.46,0,0,0-.77-.11,2.35,2.35,0,0,0-.74.11,1.56,1.56,0,0,0-.54.31,1.23,1.23,0,0,0-.33.46,1.56,1.56,0,0,0-.11.57,1,1,0,0,0,.19.65,1.69,1.69,0,0,0,.51.44,4.22,4.22,0,0,0,.71.31l.82.28a8.18,8.18,0,0,1,.82.32,2.92,2.92,0,0,1,.72.45,2,2,0,0,1,.5.67,2.22,2.22,0,0,1,.2,1,3.08,3.08,0,0,1-.21,1.14,2.68,2.68,0,0,1-.61.94,2.88,2.88,0,0,1-1,.62,3.65,3.65,0,0,1-1.32.23,4.07,4.07,0,0,1-1.66-.33,3.94,3.94,0,0,1-1.26-.89l.36-.6a.77.77,0,0,1,.13-.12.29.29,0,0,1,.16,0,.45.45,0,0,1,.2.06l.24.18.31.22a2.2,2.2,0,0,0,.4.23,2.35,2.35,0,0,0,.51.17,2.56,2.56,0,0,0,.64.07,2.45,2.45,0,0,0,.8-.12,1.76,1.76,0,0,0,.6-.35,1.45,1.45,0,0,0,.37-.54,1.73,1.73,0,0,0,.13-.69,1.15,1.15,0,0,0-.19-.69,1.84,1.84,0,0,0-.5-.46,4,4,0,0,0-.72-.31l-.82-.26c-.27-.08-.55-.19-.82-.3a2.63,2.63,0,0,1-.71-.46,1.9,1.9,0,0,1-.5-.7,2.42,2.42,0,0,1-.2-1,2.46,2.46,0,0,1,.2-1,2.37,2.37,0,0,1,.55-.82,2.71,2.71,0,0,1,.91-.57,3.33,3.33,0,0,1,1.23-.22,4,4,0,0,1,1.42.25,3.35,3.35,0,0,1,1.13.72Z"/><path d="M711.67,85.51a3.35,3.35,0,0,1,1.3.24,2.8,2.8,0,0,1,1,.69,3.06,3.06,0,0,1,.63,1.07,4.56,4.56,0,0,1,0,2.8,3.16,3.16,0,0,1-.63,1.07,2.78,2.78,0,0,1-1,.68,3.54,3.54,0,0,1-1.3.23,3.64,3.64,0,0,1-1.31-.23,2.77,2.77,0,0,1-1.61-1.75,4.56,4.56,0,0,1,0-2.8,2.9,2.9,0,0,1,.62-1.07,3,3,0,0,1,1-.69A3.43,3.43,0,0,1,711.67,85.51Zm0,5.88a1.71,1.71,0,0,0,1.46-.65,3.73,3.73,0,0,0,0-3.66,1.69,1.69,0,0,0-1.46-.66,2.09,2.09,0,0,0-.86.17,1.72,1.72,0,0,0-.61.49,2.16,2.16,0,0,0-.36.78,4.21,4.21,0,0,0-.12,1,3.06,3.06,0,0,0,.48,1.83A1.72,1.72,0,0,0,711.67,91.39Z"/><path d="M721.68,85.62V92.2H721a.3.3,0,0,1-.31-.24l-.09-.71a3.5,3.5,0,0,1-1,.77,2.56,2.56,0,0,1-1.22.29,2.33,2.33,0,0,1-.95-.18,1.89,1.89,0,0,1-.7-.51,2.24,2.24,0,0,1-.42-.78,3.64,3.64,0,0,1-.14-1v-4.2h1.16v4.2A1.72,1.72,0,0,0,717.7,91a1.27,1.27,0,0,0,1,.41,1.94,1.94,0,0,0,1-.24,3.06,3.06,0,0,0,.83-.67V85.62Z"/><path d="M724.61,86.94a3.13,3.13,0,0,1,.77-1.06,1.7,1.7,0,0,1,1.11-.38,1.75,1.75,0,0,1,.4,0,.94.94,0,0,1,.34.14l-.08.86c0,.11-.09.17-.19.17a1.76,1.76,0,0,1-.27,0,1.64,1.64,0,0,0-.4,0,1.55,1.55,0,0,0-.55.09,1.25,1.25,0,0,0-.44.27,1.91,1.91,0,0,0-.34.44,3.32,3.32,0,0,0-.28.6V92.2h-1.16V85.62h.66a.37.37,0,0,1,.26.07.45.45,0,0,1,.1.25Z"/><path d="M732.56,86.79a.36.36,0,0,1-.1.11.26.26,0,0,1-.14,0,.42.42,0,0,1-.22-.08,1.46,1.46,0,0,0-.29-.18,1.65,1.65,0,0,0-.42-.18,2.15,2.15,0,0,0-.61-.08,2.09,2.09,0,0,0-.86.17,1.6,1.6,0,0,0-.62.5,2.27,2.27,0,0,0-.38.78,4.17,4.17,0,0,0-.13,1,3.78,3.78,0,0,0,.14,1.06,2.2,2.2,0,0,0,.39.78,1.64,1.64,0,0,0,.6.48,1.88,1.88,0,0,0,.8.17,1.9,1.9,0,0,0,1.15-.33l.29-.22a.38.38,0,0,1,.24-.1.23.23,0,0,1,.22.11l.33.42a2.65,2.65,0,0,1-.49.46,3,3,0,0,1-.59.31,3.58,3.58,0,0,1-.66.19,5.36,5.36,0,0,1-.7.05,2.94,2.94,0,0,1-1.15-.22,2.6,2.6,0,0,1-.92-.66,3.19,3.19,0,0,1-.61-1.07,4.52,4.52,0,0,1-.22-1.43,4.26,4.26,0,0,1,.21-1.36,3,3,0,0,1,.59-1.08,2.84,2.84,0,0,1,1-.7,3.29,3.29,0,0,1,1.33-.26,3.09,3.09,0,0,1,1.22.23,3,3,0,0,1,.94.63Z"/><path d="M739.41,91.28a2.22,2.22,0,0,1-.51.45,3.48,3.48,0,0,1-.64.32,4.23,4.23,0,0,1-.7.18,4.59,4.59,0,0,1-.73.06,3.2,3.2,0,0,1-1.25-.23,2.75,2.75,0,0,1-1-.67,3.09,3.09,0,0,1-.65-1.1,4.43,4.43,0,0,1-.24-1.51,3.88,3.88,0,0,1,.22-1.29,3.15,3.15,0,0,1,.6-1,3,3,0,0,1,1-.69,3.3,3.3,0,0,1,1.29-.25,3,3,0,0,1,1.09.2,2.62,2.62,0,0,1,.88.57,2.7,2.7,0,0,1,.57.93,3.45,3.45,0,0,1,.21,1.25.72.72,0,0,1-.06.36.24.24,0,0,1-.22.09h-4.4A3.84,3.84,0,0,0,735,90a2.06,2.06,0,0,0,.43.77,1.58,1.58,0,0,0,.65.46,2.24,2.24,0,0,0,.84.15,2.39,2.39,0,0,0,.75-.1,4.24,4.24,0,0,0,.55-.21l.38-.22a.45.45,0,0,1,.26-.1.24.24,0,0,1,.22.11Zm-.93-3.09a2.38,2.38,0,0,0-.11-.73,1.59,1.59,0,0,0-.34-.58,1.36,1.36,0,0,0-.53-.38,1.73,1.73,0,0,0-.71-.13,1.78,1.78,0,0,0-1.31.48,2.29,2.29,0,0,0-.6,1.34Z"/><path d="M745.37,86.64a3.59,3.59,0,0,1,1-.83,2.57,2.57,0,0,1,1.25-.31,2.32,2.32,0,0,1,1,.22,2.11,2.11,0,0,1,.79.64,3.16,3.16,0,0,1,.5,1.06,5.27,5.27,0,0,1,.18,1.45,4.49,4.49,0,0,1-.2,1.35,3.4,3.4,0,0,1-.56,1.09,2.73,2.73,0,0,1-.9.72,2.57,2.57,0,0,1-1.19.26,2.38,2.38,0,0,1-1-.2,2.49,2.49,0,0,1-.76-.57v2.91h-1.17V85.62h.7a.29.29,0,0,1,.31.24Zm.06,4a1.92,1.92,0,0,0,.69.6,2,2,0,0,0,.85.18,1.65,1.65,0,0,0,1.41-.66,3.06,3.06,0,0,0,.5-1.87,5.08,5.08,0,0,0-.11-1.11,2.26,2.26,0,0,0-.33-.75,1.39,1.39,0,0,0-.53-.44,1.76,1.76,0,0,0-.71-.13,1.83,1.83,0,0,0-1,.26,3,3,0,0,0-.78.73Z"/><path d="M754.33,85.51a3.38,3.38,0,0,1,1.3.24,2.85,2.85,0,0,1,1,.69,2.79,2.79,0,0,1,.63,1.07,4.56,4.56,0,0,1,0,2.8,2.86,2.86,0,0,1-.63,1.07,2.83,2.83,0,0,1-1,.68,3.82,3.82,0,0,1-2.61,0,2.91,2.91,0,0,1-1-.68,3,3,0,0,1-.62-1.07,4.56,4.56,0,0,1,0-2.8,2.9,2.9,0,0,1,.62-1.07,2.93,2.93,0,0,1,1-.69A3.36,3.36,0,0,1,754.33,85.51Zm0,5.88a1.69,1.69,0,0,0,1.45-.65,3.73,3.73,0,0,0,0-3.66,1.67,1.67,0,0,0-1.45-.66,2.14,2.14,0,0,0-.87.17,1.81,1.81,0,0,0-.61.49,2.16,2.16,0,0,0-.36.78,4.21,4.21,0,0,0-.12,1,3.06,3.06,0,0,0,.48,1.83A1.75,1.75,0,0,0,754.33,91.39Z"/><path d="M760,86.94a3,3,0,0,1,.77-1.06,1.68,1.68,0,0,1,1.11-.38,1.75,1.75,0,0,1,.4,0,.94.94,0,0,1,.34.14l-.09.86a.19.19,0,0,1-.19.17l-.27,0a1.56,1.56,0,0,0-.39,0,1.6,1.6,0,0,0-.56.09,1.21,1.21,0,0,0-.43.27,1.94,1.94,0,0,0-.35.44,5.62,5.62,0,0,0-.28.6V92.2h-1.16V85.62h.66c.13,0,.22,0,.26.07a.45.45,0,0,1,.1.25Z"/><path d="M765.68,92.31a1.59,1.59,0,0,1-1.2-.44,1.73,1.73,0,0,1-.42-1.25v-4h-.8a.25.25,0,0,1-.17-.06.26.26,0,0,1-.07-.2v-.46l1.08-.13.26-2a.26.26,0,0,1,.27-.22h.58v2.27h1.91v.84h-1.91v4a.87.87,0,0,0,.2.62.74.74,0,0,0,.53.2,1,1,0,0,0,.31,0,1,1,0,0,0,.23-.11l.17-.11a.19.19,0,0,1,.12,0,.19.19,0,0,1,.16.11l.34.55a2.18,2.18,0,0,1-.72.44A2.67,2.67,0,0,1,765.68,92.31Z"/><path d="M772.73,86.57a4.6,4.6,0,0,1,.46-.43,3.48,3.48,0,0,1,.51-.34,2.78,2.78,0,0,1,.57-.21,2.69,2.69,0,0,1,.65-.08,2.42,2.42,0,0,1,1,.18,1.94,1.94,0,0,1,.69.51A2.38,2.38,0,0,1,777,87a3.64,3.64,0,0,1,.14,1V92.2H776V88a1.76,1.76,0,0,0-.34-1.16,1.26,1.26,0,0,0-1-.41,2,2,0,0,0-1,.24,3.22,3.22,0,0,0-.82.67V92.2h-1.17V85.62h.7a.28.28,0,0,1,.3.24Z"/><path d="M784.31,85.62V92.2h-.69a.29.29,0,0,1-.31-.24l-.09-.71a3.66,3.66,0,0,1-1,.77,2.6,2.6,0,0,1-1.23.29,2.37,2.37,0,0,1-.95-.18A2,2,0,0,1,779,90.84a3.64,3.64,0,0,1-.14-1v-4.2H780v4.2a1.72,1.72,0,0,0,.34,1.15,1.25,1.25,0,0,0,1,.41,2,2,0,0,0,1-.24,3,3,0,0,0,.82-.67V85.62Z"/><path d="M786.14,92.2V85.62h.7a.28.28,0,0,1,.3.24l.09.68a3.19,3.19,0,0,1,.82-.74,1.92,1.92,0,0,1,1.05-.29,1.56,1.56,0,0,1,1.08.38,2.07,2.07,0,0,1,.59,1,2.22,2.22,0,0,1,.37-.62,2,2,0,0,1,.5-.43,2.24,2.24,0,0,1,.6-.25,2.74,2.74,0,0,1,.64-.08,2.43,2.43,0,0,1,.92.17,1.78,1.78,0,0,1,.69.49,2,2,0,0,1,.43.78,3.43,3.43,0,0,1,.15,1.06V92.2h-1.16V88a1.74,1.74,0,0,0-.34-1.17,1.18,1.18,0,0,0-1-.4,1.49,1.49,0,0,0-.55.1,1.34,1.34,0,0,0-.45.29,1.47,1.47,0,0,0-.31.5,2,2,0,0,0-.11.68V92.2H790V88a1.85,1.85,0,0,0-.32-1.18,1.12,1.12,0,0,0-.93-.39,1.38,1.38,0,0,0-.79.23,2.34,2.34,0,0,0-.67.63v4.9Z"/><path d="M798,86.57a3.42,3.42,0,0,1,.94-.77,2.48,2.48,0,0,1,1.2-.29,2.38,2.38,0,0,1,1.05.23,2.11,2.11,0,0,1,.79.64,3.07,3.07,0,0,1,.49,1,4.69,4.69,0,0,1,.18,1.35,5,5,0,0,1-.2,1.45,3.42,3.42,0,0,1-.56,1.13A2.58,2.58,0,0,1,801,92a2.73,2.73,0,0,1-1.19.25,2.25,2.25,0,0,1-1.09-.24,2.32,2.32,0,0,1-.78-.69l-.06.6a.27.27,0,0,1-.3.24h-.75V82.63H798Zm0,4.05a1.86,1.86,0,0,0,.7.6,1.9,1.9,0,0,0,.83.18,1.68,1.68,0,0,0,1.43-.66,3.24,3.24,0,0,0,.49-2A2.92,2.92,0,0,0,801,87a1.48,1.48,0,0,0-1.25-.57,1.75,1.75,0,0,0-1,.26,3,3,0,0,0-.78.73Z"/><path d="M809.46,91.28a2.46,2.46,0,0,1-.51.45,3.57,3.57,0,0,1-.65.32,4,4,0,0,1-.7.18,4.37,4.37,0,0,1-.72.06,3.21,3.21,0,0,1-1.26-.23,2.8,2.8,0,0,1-1-.67,3.26,3.26,0,0,1-.66-1.1,4.7,4.7,0,0,1-.23-1.51,3.88,3.88,0,0,1,.21-1.29,3,3,0,0,1,.61-1,2.76,2.76,0,0,1,1-.69,3.28,3.28,0,0,1,1.28-.25,3,3,0,0,1,1.1.2,2.68,2.68,0,0,1,.87.57,2.56,2.56,0,0,1,.57.93,3.45,3.45,0,0,1,.21,1.25.72.72,0,0,1-.06.36.24.24,0,0,1-.22.09h-4.4a4.23,4.23,0,0,0,.17,1.09,2.38,2.38,0,0,0,.43.77,1.65,1.65,0,0,0,.65.46,2.26,2.26,0,0,0,.85.15,2.39,2.39,0,0,0,.75-.1,3.59,3.59,0,0,0,.54-.21,3.9,3.9,0,0,0,.38-.22.48.48,0,0,1,.26-.1.23.23,0,0,1,.22.11Zm-.94-3.09a2.38,2.38,0,0,0-.11-.73,1.72,1.72,0,0,0-.33-.58,1.44,1.44,0,0,0-.53-.38,2,2,0,0,0-2,.35,2.29,2.29,0,0,0-.6,1.34Z"/><path d="M812.08,86.94a3.11,3.11,0,0,1,.76-1.06A1.73,1.73,0,0,1,814,85.5a1.83,1.83,0,0,1,.4,0,1,1,0,0,1,.34.14l-.09.86a.19.19,0,0,1-.19.17l-.27,0a1.64,1.64,0,0,0-.4,0,1.59,1.59,0,0,0-.55.09,1.34,1.34,0,0,0-.44.27,2.23,2.23,0,0,0-.34.44,4.17,4.17,0,0,0-.28.6V92.2H811V85.62h.66a.35.35,0,0,1,.26.07.45.45,0,0,1,.1.25Z"/><path d="M940.15,87.55a5.23,5.23,0,0,1-.33,1.9,4.08,4.08,0,0,1-.94,1.47,4.25,4.25,0,0,1-1.45,1,5.15,5.15,0,0,1-1.88.33h-3.47V82.89h3.47a5.15,5.15,0,0,1,1.88.33,4.25,4.25,0,0,1,1.45,1,4.17,4.17,0,0,1,.94,1.47A5.32,5.32,0,0,1,940.15,87.55Zm-1.29,0a4.65,4.65,0,0,0-.24-1.54,3.06,3.06,0,0,0-.66-1.14,2.8,2.8,0,0,0-1-.71,3.52,3.52,0,0,0-1.37-.25h-2.21v7.27h2.21a3.72,3.72,0,0,0,1.37-.24,2.94,2.94,0,0,0,1-.72,3.06,3.06,0,0,0,.66-1.14A4.55,4.55,0,0,0,938.86,87.55Z"/><path d="M946.94,91.28a2.22,2.22,0,0,1-.51.45,3.48,3.48,0,0,1-.64.32,4.1,4.1,0,0,1-.71.18,4.37,4.37,0,0,1-.72.06,3.28,3.28,0,0,1-1.26-.23,2.8,2.8,0,0,1-1-.67,3.09,3.09,0,0,1-.65-1.1,4.43,4.43,0,0,1-.24-1.51,3.88,3.88,0,0,1,.21-1.29,3.17,3.17,0,0,1,.61-1,3,3,0,0,1,1-.69,3.3,3.3,0,0,1,1.29-.25,3,3,0,0,1,1.09.2,2.48,2.48,0,0,1,.87.57,2.58,2.58,0,0,1,.58.93,3.45,3.45,0,0,1,.21,1.25.72.72,0,0,1-.06.36.25.25,0,0,1-.22.09h-4.4a3.84,3.84,0,0,0,.17,1.09,2.19,2.19,0,0,0,.42.77,1.72,1.72,0,0,0,.65.46,2.34,2.34,0,0,0,.85.15,2.39,2.39,0,0,0,.75-.1,3.59,3.59,0,0,0,.54-.21,3.9,3.9,0,0,0,.38-.22.48.48,0,0,1,.27-.1.24.24,0,0,1,.22.11ZM946,88.19a2.11,2.11,0,0,0-.12-.73,1.44,1.44,0,0,0-.33-.58,1.36,1.36,0,0,0-.53-.38,2,2,0,0,0-2,.35,2.17,2.17,0,0,0-.6,1.34Z"/><path d="M952.3,86.7a.26.26,0,0,1-.24.15.51.51,0,0,1-.22-.07,2.94,2.94,0,0,0-.31-.16,2.81,2.81,0,0,0-.42-.17,2.08,2.08,0,0,0-.59-.07,1.68,1.68,0,0,0-.52.07,1.17,1.17,0,0,0-.4.21,1,1,0,0,0-.26.3.8.8,0,0,0-.08.37.64.64,0,0,0,.14.43,1.32,1.32,0,0,0,.39.29,4.65,4.65,0,0,0,.54.22l.63.2c.22.07.42.15.63.24a2.08,2.08,0,0,1,.54.32,1.53,1.53,0,0,1,.39.48,1.42,1.42,0,0,1,.15.68,2.32,2.32,0,0,1-.16.84,1.79,1.79,0,0,1-.49.67,2.12,2.12,0,0,1-.78.44,3.1,3.1,0,0,1-1.06.17,3.34,3.34,0,0,1-2.2-.8l.27-.44a.4.4,0,0,1,.13-.13.35.35,0,0,1,.18,0,.45.45,0,0,1,.25.09l.31.2a2.34,2.34,0,0,0,.45.2,2.13,2.13,0,0,0,.67.09,1.79,1.79,0,0,0,.59-.08,1.22,1.22,0,0,0,.42-.24.91.91,0,0,0,.25-.34,1,1,0,0,0,.08-.42.73.73,0,0,0-.14-.45,1.37,1.37,0,0,0-.39-.31,3.15,3.15,0,0,0-.55-.22l-.63-.2-.63-.23a2,2,0,0,1-.55-.34,1.5,1.5,0,0,1-.39-.5,1.66,1.66,0,0,1-.14-.71,1.8,1.8,0,0,1,.15-.73,1.82,1.82,0,0,1,.46-.61,2.09,2.09,0,0,1,.73-.42,3.26,3.26,0,0,1,2.16,0,2.74,2.74,0,0,1,.9.56Z"/><path d="M960.2,92.2H959V86.59h-3.39v4a.87.87,0,0,0,.2.62.73.73,0,0,0,.52.2,1,1,0,0,0,.32,0,1.23,1.23,0,0,0,.23-.11l.17-.11a.19.19,0,0,1,.12,0,.19.19,0,0,1,.16.11l.34.55a2.13,2.13,0,0,1-.73.44,2.58,2.58,0,0,1-.87.16,1.59,1.59,0,0,1-1.2-.44,1.73,1.73,0,0,1-.41-1.25v-4h-.8a.24.24,0,0,1-.17-.06.26.26,0,0,1-.07-.2v-.46l1.07-.14.27-2a.26.26,0,0,1,.09-.16.24.24,0,0,1,.18-.06h.58v2.27h4.55Zm.29-8.69a.67.67,0,0,1-.07.31,1.2,1.2,0,0,1-.18.26,1,1,0,0,1-.27.17.67.67,0,0,1-.31.07.68.68,0,0,1-.32-.07.76.76,0,0,1-.43-.43.82.82,0,0,1-.07-.31.93.93,0,0,1,.07-.33.78.78,0,0,1,.17-.26.76.76,0,0,1,.26-.18.74.74,0,0,1,.63,0,.8.8,0,0,1,.27.18,1,1,0,0,1,.18.26A.75.75,0,0,1,960.49,83.51Z"/><path d="M963.19,86.57a3.72,3.72,0,0,1,.46-.43,3.48,3.48,0,0,1,.51-.34,2.78,2.78,0,0,1,.57-.21,2.69,2.69,0,0,1,.65-.08,2.33,2.33,0,0,1,1,.18,1.78,1.78,0,0,1,.69.51,2.07,2.07,0,0,1,.42.79,3.31,3.31,0,0,1,.15,1V92.2h-1.17V88a1.75,1.75,0,0,0-.34-1.16,1.28,1.28,0,0,0-1-.41,1.94,1.94,0,0,0-.95.24,3.26,3.26,0,0,0-.83.67V92.2H962.1V85.62h.7a.28.28,0,0,1,.3.24Z"/><path d="M969.18,86.55a3.82,3.82,0,0,1,1.18-.79,3.71,3.71,0,0,1,1.4-.26,2.52,2.52,0,0,1,1,.18,1.89,1.89,0,0,1,.72.51,2.1,2.1,0,0,1,.44.79,3.2,3.2,0,0,1,.15,1V92.2h-.51a.6.6,0,0,1-.26,0,.37.37,0,0,1-.14-.22l-.13-.62q-.27.24-.51.42A2.55,2.55,0,0,1,972,92a2.84,2.84,0,0,1-.58.2,3.66,3.66,0,0,1-.69.07,2.46,2.46,0,0,1-.72-.11,1.77,1.77,0,0,1-.59-.32,1.48,1.48,0,0,1-.39-.55,1.79,1.79,0,0,1-.15-.77,1.47,1.47,0,0,1,.21-.75,1.91,1.91,0,0,1,.7-.64,4.49,4.49,0,0,1,1.25-.46,9.72,9.72,0,0,1,1.9-.21V88a1.76,1.76,0,0,0-.33-1.16,1.19,1.19,0,0,0-1-.39,2.2,2.2,0,0,0-.72.1,3.32,3.32,0,0,0-.5.25A2.81,2.81,0,0,0,970,87a.51.51,0,0,1-.3.1.32.32,0,0,1-.2-.06.54.54,0,0,1-.15-.15Zm3.74,2.69a9.67,9.67,0,0,0-1.36.13,3.64,3.64,0,0,0-.92.26,1.41,1.41,0,0,0-.51.38.81.81,0,0,0-.16.5,1.06,1.06,0,0,0,.09.45.76.76,0,0,0,.23.3.92.92,0,0,0,.34.18,1.49,1.49,0,0,0,.43,0,2.47,2.47,0,0,0,.56-.06,1.91,1.91,0,0,0,.47-.18,2,2,0,0,0,.43-.28,2.74,2.74,0,0,0,.4-.37Z"/><path d="M981.84,92.2h-1.16V86.59h-3.39v4a.87.87,0,0,0,.2.62.73.73,0,0,0,.52.2,1,1,0,0,0,.32,0l.23-.11a1.11,1.11,0,0,0,.16-.11.24.24,0,0,1,.12,0,.2.2,0,0,1,.17.11l.33.55a2.18,2.18,0,0,1-.72.44,2.58,2.58,0,0,1-.87.16,1.59,1.59,0,0,1-1.2-.44,1.73,1.73,0,0,1-.42-1.25v-4h-.79a.28.28,0,0,1-.18-.06.3.3,0,0,1-.07-.2v-.46l1.08-.14.27-2a.26.26,0,0,1,.09-.16.24.24,0,0,1,.18-.06h.58v2.27h4.55Zm.29-8.69a.82.82,0,0,1-.07.31,1.2,1.2,0,0,1-.18.26,1,1,0,0,1-.27.17.68.68,0,0,1-.32.07.67.67,0,0,1-.31-.07.76.76,0,0,1-.43-.43.67.67,0,0,1-.07-.31.75.75,0,0,1,.07-.33.78.78,0,0,1,.17-.26.76.76,0,0,1,.26-.18.74.74,0,0,1,.63,0,.8.8,0,0,1,.27.18,1,1,0,0,1,.18.26A.93.93,0,0,1,982.13,83.51Z"/><path d="M986.51,85.51a3.31,3.31,0,0,1,1.3.24,2.8,2.8,0,0,1,1,.69,2.92,2.92,0,0,1,.63,1.07,4.56,4.56,0,0,1,0,2.8,3,3,0,0,1-.63,1.07,2.78,2.78,0,0,1-1,.68,3.51,3.51,0,0,1-1.3.23,3.64,3.64,0,0,1-1.31-.23,2.77,2.77,0,0,1-1.61-1.75,4.56,4.56,0,0,1,0-2.8,2.9,2.9,0,0,1,.62-1.07,3,3,0,0,1,1-.69A3.43,3.43,0,0,1,986.51,85.51Zm0,5.88a1.71,1.71,0,0,0,1.46-.65,3.73,3.73,0,0,0,0-3.66,1.69,1.69,0,0,0-1.46-.66,2.09,2.09,0,0,0-.86.17,1.72,1.72,0,0,0-.61.49,2.16,2.16,0,0,0-.36.78,4.21,4.21,0,0,0-.12,1,3.06,3.06,0,0,0,.48,1.83A1.74,1.74,0,0,0,986.51,91.39Z"/><path d="M992.2,86.57a3.72,3.72,0,0,1,.46-.43,3.48,3.48,0,0,1,.51-.34,2.78,2.78,0,0,1,.57-.21,2.69,2.69,0,0,1,.65-.08,2.33,2.33,0,0,1,1,.18,1.78,1.78,0,0,1,.69.51,2.07,2.07,0,0,1,.42.79,3.31,3.31,0,0,1,.14,1V92.2h-1.16V88a1.75,1.75,0,0,0-.34-1.16,1.28,1.28,0,0,0-1-.41,2,2,0,0,0-1,.24,3.4,3.4,0,0,0-.82.67V92.2h-1.16V85.62h.69a.29.29,0,0,1,.31.24Z"/><path d="M1002.8,86.64a3.31,3.31,0,0,1,1-.83,2.54,2.54,0,0,1,1.25-.31,2.32,2.32,0,0,1,1,.22,2.11,2.11,0,0,1,.79.64,3.36,3.36,0,0,1,.5,1.06,5.71,5.71,0,0,1,.17,1.45,4.5,4.5,0,0,1-.19,1.35,3.4,3.4,0,0,1-.56,1.09,2.73,2.73,0,0,1-.9.72,2.6,2.6,0,0,1-1.19.26,2.36,2.36,0,0,1-1-.2,2.66,2.66,0,0,1-.77-.57v2.91h-1.16V85.62h.7a.28.28,0,0,1,.3.24Zm.05,4a2,2,0,0,0,.7.6,1.92,1.92,0,0,0,.84.18,1.66,1.66,0,0,0,1.42-.66,3.06,3.06,0,0,0,.5-1.87,4.49,4.49,0,0,0-.12-1.11,1.92,1.92,0,0,0-.33-.75,1.3,1.3,0,0,0-.52-.44,2,2,0,0,0-1.7.13,2.84,2.84,0,0,0-.79.73Z"/><path d="M1011.75,85.51a3.35,3.35,0,0,1,1.3.24,2.8,2.8,0,0,1,1,.69,3.06,3.06,0,0,1,.63,1.07,4.56,4.56,0,0,1,0,2.8,3.16,3.16,0,0,1-.63,1.07,2.78,2.78,0,0,1-1,.68,3.54,3.54,0,0,1-1.3.23,3.64,3.64,0,0,1-1.31-.23,2.78,2.78,0,0,1-1-.68,3.16,3.16,0,0,1-.63-1.07,4.77,4.77,0,0,1,0-2.8,3.06,3.06,0,0,1,.63-1.07,2.8,2.8,0,0,1,1-.69A3.43,3.43,0,0,1,1011.75,85.51Zm0,5.88a1.71,1.71,0,0,0,1.46-.65,3.73,3.73,0,0,0,0-3.66,1.69,1.69,0,0,0-1.46-.66,2.09,2.09,0,0,0-.86.17,1.72,1.72,0,0,0-.61.49,2.16,2.16,0,0,0-.36.78,4.21,4.21,0,0,0-.12,1,3.06,3.06,0,0,0,.48,1.83A1.72,1.72,0,0,0,1011.75,91.39Z"/><path d="M1017.45,86.94a2.89,2.89,0,0,1,.76-1.06,1.73,1.73,0,0,1,1.12-.38,1.67,1.67,0,0,1,.39,0,1,1,0,0,1,.35.14l-.09.86a.19.19,0,0,1-.19.17l-.27,0a1.64,1.64,0,0,0-.4,0,1.59,1.59,0,0,0-.55.09,1.34,1.34,0,0,0-.44.27,1.91,1.91,0,0,0-.34.44,4.17,4.17,0,0,0-.28.6V92.2h-1.16V85.62h.66a.35.35,0,0,1,.26.07.45.45,0,0,1,.1.25Z"/><path d="M1023.1,92.31a1.59,1.59,0,0,1-1.2-.44,1.73,1.73,0,0,1-.42-1.25v-4h-.79a.28.28,0,0,1-.18-.06.3.3,0,0,1-.07-.2v-.46l1.08-.13.27-2a.26.26,0,0,1,.09-.16.24.24,0,0,1,.18-.06h.58v2.27h1.9v.84h-1.9v4a.87.87,0,0,0,.2.62.73.73,0,0,0,.52.2,1,1,0,0,0,.32,0,1.23,1.23,0,0,0,.23-.11,1.11,1.11,0,0,0,.16-.11.24.24,0,0,1,.12,0,.2.2,0,0,1,.17.11l.33.55a2.08,2.08,0,0,1-.72.44A2.58,2.58,0,0,1,1023.1,92.31Z"/><path d="M1030.16,86.57a3.72,3.72,0,0,1,.46-.43,3.48,3.48,0,0,1,.51-.34,2.78,2.78,0,0,1,.57-.21,2.69,2.69,0,0,1,.65-.08,2.33,2.33,0,0,1,1,.18,1.78,1.78,0,0,1,.69.51,2.07,2.07,0,0,1,.42.79,3.31,3.31,0,0,1,.14,1V92.2h-1.16V88a1.75,1.75,0,0,0-.34-1.16,1.28,1.28,0,0,0-1-.41,2,2,0,0,0-1,.24,3.4,3.4,0,0,0-.82.67V92.2h-1.16V85.62h.69a.29.29,0,0,1,.31.24Z"/><path d="M1041.74,85.62V92.2h-.69a.29.29,0,0,1-.31-.24l-.09-.71a3.54,3.54,0,0,1-1,.77,2.53,2.53,0,0,1-1.22.29,2.33,2.33,0,0,1-1-.18,1.78,1.78,0,0,1-.69-.51,2,2,0,0,1-.42-.78,3.31,3.31,0,0,1-.14-1v-4.2h1.15v4.2a1.72,1.72,0,0,0,.35,1.15,1.24,1.24,0,0,0,1,.41,2,2,0,0,0,1-.24,3.18,3.18,0,0,0,.82-.67V85.62Z"/><path d="M1043.57,92.2V85.62h.7a.28.28,0,0,1,.3.24l.09.68a3.32,3.32,0,0,1,.81-.74,2,2,0,0,1,1.06-.29,1.56,1.56,0,0,1,1.07.37,2.09,2.09,0,0,1,.6,1,2,2,0,0,1,.37-.62,1.71,1.71,0,0,1,.5-.43,2.06,2.06,0,0,1,.59-.25,2.8,2.8,0,0,1,.64-.08,2.45,2.45,0,0,1,.93.17,1.87,1.87,0,0,1,.69.48,2.23,2.23,0,0,1,.43.79,3.43,3.43,0,0,1,.15,1.06V92.2h-1.16V88a1.79,1.79,0,0,0-.34-1.17,1.2,1.2,0,0,0-1-.4,1.4,1.4,0,0,0-.54.1,1.34,1.34,0,0,0-.45.29,1.52,1.52,0,0,0-.31.49,2.08,2.08,0,0,0-.11.69V92.2h-1.17V88a1.79,1.79,0,0,0-.32-1.18,1.12,1.12,0,0,0-.92-.39,1.43,1.43,0,0,0-.8.23,2.76,2.76,0,0,0-.67.62V92.2Z"/><path d="M1055.43,86.57a3.28,3.28,0,0,1,.94-.77,2.45,2.45,0,0,1,1.2-.29,2.34,2.34,0,0,1,1,.23,2,2,0,0,1,.79.64,2.81,2.81,0,0,1,.5,1,4.71,4.71,0,0,1,.17,1.35,5,5,0,0,1-.19,1.45,3.42,3.42,0,0,1-.56,1.13,2.61,2.61,0,0,1-.9.72,2.65,2.65,0,0,1-1.18.25,2.32,2.32,0,0,1-1.1-.24,2.39,2.39,0,0,1-.77-.69l-.06.6a.28.28,0,0,1-.3.24h-.75V82.63h1.17Zm0,4.05a1.92,1.92,0,0,0,.69.6,2,2,0,0,0,.84.18,1.66,1.66,0,0,0,1.42-.66,3.23,3.23,0,0,0,.5-2,2.92,2.92,0,0,0-.44-1.77,1.48,1.48,0,0,0-1.25-.57,1.79,1.79,0,0,0-1,.26,2.78,2.78,0,0,0-.77.73Z"/><path d="M1066.89,91.28a2.51,2.51,0,0,1-.52.45,3.48,3.48,0,0,1-.64.32,4.23,4.23,0,0,1-.7.18,4.59,4.59,0,0,1-.73.06,3.2,3.2,0,0,1-1.25-.23,2.75,2.75,0,0,1-1-.67,3.24,3.24,0,0,1-.65-1.1,4.43,4.43,0,0,1-.24-1.51,3.88,3.88,0,0,1,.22-1.29,3.15,3.15,0,0,1,.6-1,3,3,0,0,1,1-.69,3.3,3.3,0,0,1,1.29-.25,3,3,0,0,1,1.09.2,2.62,2.62,0,0,1,.88.57,2.7,2.7,0,0,1,.57.93,3.45,3.45,0,0,1,.21,1.25.72.72,0,0,1-.06.36.24.24,0,0,1-.22.09h-4.4a3.84,3.84,0,0,0,.17,1.09,2.2,2.2,0,0,0,.43.77,1.65,1.65,0,0,0,.65.46,2.24,2.24,0,0,0,.84.15,2.39,2.39,0,0,0,.75-.1,4.24,4.24,0,0,0,.55-.21l.38-.22a.48.48,0,0,1,.26-.1.24.24,0,0,1,.22.11Zm-.94-3.09a2.38,2.38,0,0,0-.11-.73,1.59,1.59,0,0,0-.34-.58,1.36,1.36,0,0,0-.53-.38,1.71,1.71,0,0,0-.7-.13,1.78,1.78,0,0,0-1.32.48,2.29,2.29,0,0,0-.6,1.34Z"/><path d="M1069.5,86.94a3,3,0,0,1,.77-1.06,1.72,1.72,0,0,1,1.11-.38,1.68,1.68,0,0,1,.4,0,.87.87,0,0,1,.34.14l-.08.86c0,.11-.09.17-.19.17a2,2,0,0,1-.27,0,1.64,1.64,0,0,0-.4,0,1.55,1.55,0,0,0-.55.09,1.25,1.25,0,0,0-.44.27,1.91,1.91,0,0,0-.34.44,3.32,3.32,0,0,0-.28.6V92.2h-1.16V85.62h.66a.35.35,0,0,1,.26.07.45.45,0,0,1,.1.25Z"/><path d="M719.26,115.17a.39.39,0,0,1-.13.15.31.31,0,0,1-.17.05.5.5,0,0,1-.26-.11,3.66,3.66,0,0,0-.91-.49,2.39,2.39,0,0,0-.76-.11,2.19,2.19,0,0,0-.75.12,1.57,1.57,0,0,0-.54.3,1.5,1.5,0,0,0-.33.46,1.56,1.56,0,0,0-.11.57,1,1,0,0,0,.2.65,1.54,1.54,0,0,0,.5.44,4,4,0,0,0,.72.31l.82.28a8.18,8.18,0,0,1,.82.32,3.06,3.06,0,0,1,.71.45,2.13,2.13,0,0,1,.51.67,2.23,2.23,0,0,1,.19,1,3.08,3.08,0,0,1-.21,1.14,2.68,2.68,0,0,1-.61.94,2.79,2.79,0,0,1-1,.62,3.65,3.65,0,0,1-1.32.23,4,4,0,0,1-1.65-.33,3.88,3.88,0,0,1-1.27-.89l.37-.6a.68.68,0,0,1,.12-.12.33.33,0,0,1,.17,0,.41.41,0,0,1,.19.06l.24.18.32.22a1.91,1.91,0,0,0,.4.23,2.18,2.18,0,0,0,.51.17,2.83,2.83,0,0,0,1.44,0,1.81,1.81,0,0,0,.59-.35,1.47,1.47,0,0,0,.38-.54,1.88,1.88,0,0,0,.13-.69,1.22,1.22,0,0,0-.19-.69,1.75,1.75,0,0,0-.51-.46,3.3,3.3,0,0,0-.71-.3l-.82-.27a8,8,0,0,1-.82-.3,2.68,2.68,0,0,1-.72-.46,2.16,2.16,0,0,1-.5-.7,2.7,2.7,0,0,1,0-2,2.4,2.4,0,0,1,.56-.82,2.57,2.57,0,0,1,.9-.57,3.37,3.37,0,0,1,1.23-.21,4,4,0,0,1,1.42.24,3.26,3.26,0,0,1,1.13.72Z"/><path d="M726.58,122.11a2.51,2.51,0,0,1-.52.45,3.48,3.48,0,0,1-.64.32,4.23,4.23,0,0,1-.7.18,4.56,4.56,0,0,1-.72.06,3.21,3.21,0,0,1-1.26-.23,2.75,2.75,0,0,1-1-.67,3.24,3.24,0,0,1-.65-1.1,4.4,4.4,0,0,1-.23-1.51,3.88,3.88,0,0,1,.21-1.29,3.15,3.15,0,0,1,.6-1,3,3,0,0,1,1-.69,3.3,3.3,0,0,1,1.29-.25,3.07,3.07,0,0,1,1.1.2,2.71,2.71,0,0,1,.87.58,2.57,2.57,0,0,1,.57.92,3.45,3.45,0,0,1,.21,1.25.72.72,0,0,1-.06.36.24.24,0,0,1-.22.09H722a3.84,3.84,0,0,0,.17,1.09,2.2,2.2,0,0,0,.43.77,1.65,1.65,0,0,0,.65.46,2.24,2.24,0,0,0,.84.15,2.39,2.39,0,0,0,.75-.1,4.24,4.24,0,0,0,.55-.21l.38-.22a.48.48,0,0,1,.26-.1.24.24,0,0,1,.22.11Zm-.94-3.09a2.38,2.38,0,0,0-.11-.73,1.59,1.59,0,0,0-.34-.58,1.36,1.36,0,0,0-.53-.38,1.71,1.71,0,0,0-.7-.13,1.78,1.78,0,0,0-1.32.48A2.29,2.29,0,0,0,722,119Z"/><path d="M733.65,116.71v.43q0,.21-.27.27l-.75.1a2,2,0,0,1,.23.95,2.06,2.06,0,0,1-.19.87,1.87,1.87,0,0,1-.51.67,2.27,2.27,0,0,1-.78.43,3.12,3.12,0,0,1-1,.15,3.05,3.05,0,0,1-.87-.11,1.28,1.28,0,0,0-.32.28.5.5,0,0,0-.11.29.41.41,0,0,0,.19.36,1.33,1.33,0,0,0,.51.17,4.74,4.74,0,0,0,.71.07c.27,0,.54,0,.82,0a7.35,7.35,0,0,1,.82.1,2.57,2.57,0,0,1,.71.23,1.36,1.36,0,0,1,.5.45,1.29,1.29,0,0,1,.19.74,1.72,1.72,0,0,1-.21.82,2.23,2.23,0,0,1-.6.71,3.21,3.21,0,0,1-1,.49,4.27,4.27,0,0,1-1.29.19,4.73,4.73,0,0,1-1.26-.15,2.87,2.87,0,0,1-.9-.38,1.69,1.69,0,0,1-.54-.56,1.31,1.31,0,0,1-.18-.66,1.19,1.19,0,0,1,.31-.82,2,2,0,0,1,.84-.54,1.21,1.21,0,0,1-.47-.35.94.94,0,0,1-.17-.59,1,1,0,0,1,0-.29,1.53,1.53,0,0,1,.16-.31,1.45,1.45,0,0,1,.27-.29,1.61,1.61,0,0,1,.36-.24,2,2,0,0,1-.76-.72,2,2,0,0,1-.27-1.05,2.13,2.13,0,0,1,.18-.88,2,2,0,0,1,.52-.67,2.38,2.38,0,0,1,.79-.42,3.18,3.18,0,0,1,1-.15,3.38,3.38,0,0,1,.8.09,2.94,2.94,0,0,1,.68.28Zm-1.17,6.68a.56.56,0,0,0-.14-.39.81.81,0,0,0-.37-.23,2,2,0,0,0-.53-.12c-.21,0-.42-.05-.65-.06l-.69,0c-.23,0-.46,0-.68-.06a1.75,1.75,0,0,0-.59.42.85.85,0,0,0-.23.6.88.88,0,0,0,.11.42,1,1,0,0,0,.35.33,1.92,1.92,0,0,0,.59.22,4,4,0,0,0,.83.08,4.28,4.28,0,0,0,.84-.08,2.3,2.3,0,0,0,.63-.24,1.27,1.27,0,0,0,.39-.37A.92.92,0,0,0,732.48,123.39Zm-2.09-3.57a1.92,1.92,0,0,0,.62-.1,1.42,1.42,0,0,0,.45-.27,1.17,1.17,0,0,0,.27-.42,1.61,1.61,0,0,0,.09-.54,1.27,1.27,0,0,0-.37-1,1.43,1.43,0,0,0-1.06-.36,1.47,1.47,0,0,0-1.07.36,1.3,1.3,0,0,0-.36,1,1.61,1.61,0,0,0,.09.54,1.07,1.07,0,0,0,.28.42,1.48,1.48,0,0,0,.44.27A2,2,0,0,0,730.39,119.82Z"/><path d="M734.86,123v-6.58h.69a.29.29,0,0,1,.31.24l.08.68a3.55,3.55,0,0,1,.82-.74,2,2,0,0,1,1-.29,1.53,1.53,0,0,1,1.08.38,2.17,2.17,0,0,1,.6,1,2,2,0,0,1,.36-.62,2.08,2.08,0,0,1,.51-.43,2.06,2.06,0,0,1,.59-.25,2.74,2.74,0,0,1,.64-.08,2.45,2.45,0,0,1,.93.17,1.78,1.78,0,0,1,.69.49,2.25,2.25,0,0,1,.43.78,3.43,3.43,0,0,1,.15,1.06V123h-1.17v-4.19a1.79,1.79,0,0,0-.33-1.17,1.2,1.2,0,0,0-1-.4,1.4,1.4,0,0,0-.54.1,1.28,1.28,0,0,0-.76.79,1.76,1.76,0,0,0-.12.68V123h-1.16v-4.19a1.85,1.85,0,0,0-.32-1.18,1.12,1.12,0,0,0-.93-.39,1.4,1.4,0,0,0-.79.23,2.47,2.47,0,0,0-.67.63V123Z"/><path d="M750.89,122.11a2.22,2.22,0,0,1-.51.45,3.48,3.48,0,0,1-.64.32,4.1,4.1,0,0,1-.71.18,4.37,4.37,0,0,1-.72.06,3.28,3.28,0,0,1-1.26-.23,2.8,2.8,0,0,1-1-.67,3.09,3.09,0,0,1-.65-1.1,4.39,4.39,0,0,1-.24-1.51,3.88,3.88,0,0,1,.21-1.29,3.17,3.17,0,0,1,.61-1,3,3,0,0,1,1-.69,3.3,3.3,0,0,1,1.29-.25,3,3,0,0,1,1.09.2,2.51,2.51,0,0,1,.87.58,2.46,2.46,0,0,1,.58.92,3.45,3.45,0,0,1,.21,1.25.72.72,0,0,1-.06.36.24.24,0,0,1-.22.09h-4.4a3.84,3.84,0,0,0,.17,1.09,2.19,2.19,0,0,0,.42.77,1.72,1.72,0,0,0,.65.46,2.34,2.34,0,0,0,.85.15,2.39,2.39,0,0,0,.75-.1,3.59,3.59,0,0,0,.54-.21,3.9,3.9,0,0,0,.38-.22.48.48,0,0,1,.27-.1.24.24,0,0,1,.22.11ZM750,119a2.11,2.11,0,0,0-.12-.73,1.44,1.44,0,0,0-.33-.58,1.36,1.36,0,0,0-.53-.38,2,2,0,0,0-2,.35,2.17,2.17,0,0,0-.6,1.34Z"/><path d="M753.5,117.4A4.6,4.6,0,0,1,754,117a3.48,3.48,0,0,1,.51-.34,2.78,2.78,0,0,1,.57-.21,2.71,2.71,0,0,1,.66-.08,2.4,2.4,0,0,1,.95.18,1.94,1.94,0,0,1,.69.51,2.38,2.38,0,0,1,.42.79,3.64,3.64,0,0,1,.14,1V123h-1.16v-4.19a1.76,1.76,0,0,0-.35-1.16,1.26,1.26,0,0,0-1-.41,2,2,0,0,0-1,.24,3.22,3.22,0,0,0-.82.67V123h-1.17v-6.58h.7a.28.28,0,0,1,.3.24Z"/><path d="M761.6,123.14a1.59,1.59,0,0,1-1.2-.44,1.73,1.73,0,0,1-.42-1.25v-4h-.79a.28.28,0,0,1-.18-.06.26.26,0,0,1-.07-.2v-.46l1.08-.13.27-2a.3.3,0,0,1,.08-.16.28.28,0,0,1,.18-.06h.59v2.27H763v.84h-1.9v4a.83.83,0,0,0,.2.62.72.72,0,0,0,.52.2,1,1,0,0,0,.31,0,1,1,0,0,0,.23-.11l.17-.11a.24.24,0,0,1,.12,0,.19.19,0,0,1,.16.11l.34.55a2.18,2.18,0,0,1-.72.44A2.58,2.58,0,0,1,761.6,123.14Z"/><path d="M768.76,113.46V123H767.6v-9.57Z"/><path d="M776,122.11a2.51,2.51,0,0,1-.52.45,3.48,3.48,0,0,1-.64.32,4.23,4.23,0,0,1-.7.18,4.59,4.59,0,0,1-.73.06,3.2,3.2,0,0,1-1.25-.23,2.75,2.75,0,0,1-1-.67,3.24,3.24,0,0,1-.65-1.1,4.39,4.39,0,0,1-.24-1.51,3.88,3.88,0,0,1,.22-1.29,3.15,3.15,0,0,1,.6-1,3,3,0,0,1,1-.69,3.3,3.3,0,0,1,1.29-.25,3,3,0,0,1,1.09.2,2.65,2.65,0,0,1,.88.58,2.57,2.57,0,0,1,.57.92,3.45,3.45,0,0,1,.21,1.25.72.72,0,0,1-.06.36.24.24,0,0,1-.22.09h-4.4a3.84,3.84,0,0,0,.17,1.09,2.2,2.2,0,0,0,.43.77,1.65,1.65,0,0,0,.65.46,2.24,2.24,0,0,0,.84.15,2.39,2.39,0,0,0,.75-.1,4.24,4.24,0,0,0,.55-.21l.38-.22a.48.48,0,0,1,.26-.1.24.24,0,0,1,.22.11ZM775,119a2.38,2.38,0,0,0-.11-.73,1.59,1.59,0,0,0-.34-.58,1.36,1.36,0,0,0-.53-.38,1.71,1.71,0,0,0-.7-.13,1.78,1.78,0,0,0-1.32.48,2.29,2.29,0,0,0-.6,1.34Z"/><path d="M778.59,117.4A3.64,3.64,0,0,1,779,117a3.48,3.48,0,0,1,.51-.34,2.66,2.66,0,0,1,.58-.21,2.63,2.63,0,0,1,.65-.08,2.33,2.33,0,0,1,1,.18,1.78,1.78,0,0,1,.69.51,2.38,2.38,0,0,1,.42.79,3.64,3.64,0,0,1,.14,1V123h-1.16v-4.19a1.76,1.76,0,0,0-.34-1.16,1.3,1.3,0,0,0-1-.41,2,2,0,0,0-1,.24,3.4,3.4,0,0,0-.82.67V123H777.5v-6.58h.69a.29.29,0,0,1,.31.24Z"/><path d="M790.31,116.71v.43q0,.21-.27.27l-.75.1a2.11,2.11,0,0,1,.22.95,1.92,1.92,0,0,1-.19.87,1.87,1.87,0,0,1-.51.67,2.1,2.1,0,0,1-.78.43,3.41,3.41,0,0,1-1.86,0,1.22,1.22,0,0,0-.31.28.44.44,0,0,0-.11.29.39.39,0,0,0,.19.36,1.22,1.22,0,0,0,.5.17,4.88,4.88,0,0,0,.71.07c.27,0,.54,0,.82,0a7.35,7.35,0,0,1,.82.1,2.47,2.47,0,0,1,.71.23,1.23,1.23,0,0,1,.7,1.19,1.72,1.72,0,0,1-.21.82,2.27,2.27,0,0,1-.61.71,3.27,3.27,0,0,1-1,.49,4.38,4.38,0,0,1-1.3.19,4.73,4.73,0,0,1-1.26-.15,2.87,2.87,0,0,1-.9-.38,1.65,1.65,0,0,1-.53-.56,1.31,1.31,0,0,1-.18-.66,1.18,1.18,0,0,1,.3-.82,2.11,2.11,0,0,1,.84-.54,1.17,1.17,0,0,1-.46-.35.89.89,0,0,1-.18-.59.79.79,0,0,1,.06-.29.92.92,0,0,1,.16-.31,1.39,1.39,0,0,1,.26-.29,1.61,1.61,0,0,1,.36-.24,2,2,0,0,1-.76-.72,2,2,0,0,1-.27-1.05,1.92,1.92,0,0,1,.7-1.55,2.48,2.48,0,0,1,.79-.42,3.22,3.22,0,0,1,1-.15,3.32,3.32,0,0,1,.8.09,2.77,2.77,0,0,1,.68.28Zm-1.18,6.68A.56.56,0,0,0,789,123a.93.93,0,0,0-.37-.23,2.14,2.14,0,0,0-.54-.12,6.26,6.26,0,0,0-.65-.06l-.69,0c-.23,0-.46,0-.67-.06a1.79,1.79,0,0,0-.6.42.9.9,0,0,0-.23.6.88.88,0,0,0,.11.42,1.11,1.11,0,0,0,.35.33,2,2,0,0,0,.59.22,4.4,4.4,0,0,0,1.67,0,2.3,2.3,0,0,0,.63-.24,1.43,1.43,0,0,0,.4-.37A.91.91,0,0,0,789.13,123.39ZM787,119.82a1.92,1.92,0,0,0,.62-.1,1.42,1.42,0,0,0,.45-.27,1.17,1.17,0,0,0,.27-.42,1.61,1.61,0,0,0,.09-.54,1.3,1.3,0,0,0-.36-1,1.47,1.47,0,0,0-1.07-.36,1.45,1.45,0,0,0-1.06.36,1.27,1.27,0,0,0-.37,1,1.61,1.61,0,0,0,.09.54,1.34,1.34,0,0,0,.28.42,1.42,1.42,0,0,0,.45.27A1.9,1.9,0,0,0,787,119.82Z"/><path d="M793.53,123.14a1.59,1.59,0,0,1-1.2-.44,1.73,1.73,0,0,1-.42-1.25v-4h-.79a.28.28,0,0,1-.18-.06.3.3,0,0,1-.07-.2v-.46l1.08-.13.27-2a.26.26,0,0,1,.09-.16.24.24,0,0,1,.18-.06h.58v2.27H795v.84h-1.9v4a.87.87,0,0,0,.2.62.73.73,0,0,0,.52.2,1,1,0,0,0,.32,0,1.23,1.23,0,0,0,.23-.11,1.11,1.11,0,0,0,.16-.11.24.24,0,0,1,.12,0,.2.2,0,0,1,.17.11l.33.55a2.18,2.18,0,0,1-.72.44A2.58,2.58,0,0,1,793.53,123.14Z"/><path d="M797.33,117.33a3.74,3.74,0,0,1,.94-.72,2.5,2.5,0,0,1,1.18-.27,2.42,2.42,0,0,1,1,.18,1.82,1.82,0,0,1,.68.51,2.07,2.07,0,0,1,.42.79,3.31,3.31,0,0,1,.15,1V123h-1.17v-4.19a1.76,1.76,0,0,0-.34-1.16,1.28,1.28,0,0,0-1-.41,2,2,0,0,0-1,.24,3.26,3.26,0,0,0-.83.67V123h-1.16v-9.57h1.16Z"/><path d="M959.69,121.11a.25.25,0,0,1,.18.08l.5.54a3.88,3.88,0,0,1-1.39,1,4.84,4.84,0,0,1-2,.37,4.61,4.61,0,0,1-1.82-.35,4,4,0,0,1-1.4-1,4.58,4.58,0,0,1-.9-1.5,5.7,5.7,0,0,1-.31-1.93,5.43,5.43,0,0,1,.33-1.93,4.37,4.37,0,0,1,.93-1.51,4.14,4.14,0,0,1,1.44-1,4.84,4.84,0,0,1,1.85-.34,4.24,4.24,0,0,1,3.1,1.18l-.42.58a.32.32,0,0,1-.1.1.29.29,0,0,1-.17,0,.56.56,0,0,1-.28-.13,3.79,3.79,0,0,0-.44-.28,3.49,3.49,0,0,0-.69-.29,3.6,3.6,0,0,0-1-.12,3.3,3.3,0,0,0-1.32.25,2.78,2.78,0,0,0-1,.72,3.33,3.33,0,0,0-.68,1.16,5,5,0,0,0,0,3.09,3.66,3.66,0,0,0,.68,1.16,2.84,2.84,0,0,0,1,.71,3.13,3.13,0,0,0,1.27.25,4.43,4.43,0,0,0,.75,0,3,3,0,0,0,.62-.15,3.16,3.16,0,0,0,.52-.26c.16-.11.32-.24.49-.38A.3.3,0,0,1,959.69,121.11Z"/><path d="M962.72,117.33a3.57,3.57,0,0,1,.94-.72,2.48,2.48,0,0,1,1.18-.27,2.33,2.33,0,0,1,.95.18,1.78,1.78,0,0,1,.69.51,2.07,2.07,0,0,1,.42.79,3.31,3.31,0,0,1,.14,1V123h-1.16v-4.19a1.76,1.76,0,0,0-.34-1.16,1.28,1.28,0,0,0-1-.41,2,2,0,0,0-1,.24,3.4,3.4,0,0,0-.82.67V123h-1.16v-9.57h1.16Z"/><path d="M974.16,122.11a2.51,2.51,0,0,1-.52.45,3.48,3.48,0,0,1-.64.32,4.23,4.23,0,0,1-.7.18,4.59,4.59,0,0,1-.73.06,3.2,3.2,0,0,1-1.25-.23,2.75,2.75,0,0,1-1-.67,3.24,3.24,0,0,1-.65-1.1,4.39,4.39,0,0,1-.24-1.51,3.88,3.88,0,0,1,.22-1.29,3.15,3.15,0,0,1,.6-1,3,3,0,0,1,1-.69,3.3,3.3,0,0,1,1.29-.25,3,3,0,0,1,1.09.2,2.65,2.65,0,0,1,.88.58,2.57,2.57,0,0,1,.57.92,3.45,3.45,0,0,1,.21,1.25.72.72,0,0,1-.06.36.24.24,0,0,1-.22.09h-4.4a3.84,3.84,0,0,0,.17,1.09,2.2,2.2,0,0,0,.43.77,1.65,1.65,0,0,0,.65.46,2.24,2.24,0,0,0,.84.15,2.39,2.39,0,0,0,.75-.1,4.24,4.24,0,0,0,.55-.21l.38-.22a.48.48,0,0,1,.26-.1.24.24,0,0,1,.22.11Zm-.94-3.09a2.38,2.38,0,0,0-.11-.73,1.59,1.59,0,0,0-.34-.58,1.36,1.36,0,0,0-.53-.38,1.71,1.71,0,0,0-.7-.13,1.78,1.78,0,0,0-1.32.48,2.29,2.29,0,0,0-.6,1.34Z"/><path d="M980.26,117.62a.57.57,0,0,1-.11.11.2.2,0,0,1-.14,0,.4.4,0,0,1-.21-.08,2.45,2.45,0,0,0-.29-.18,2,2,0,0,0-.42-.18,2.22,2.22,0,0,0-.62-.08,2.13,2.13,0,0,0-.86.17,1.76,1.76,0,0,0-.62.5,2.26,2.26,0,0,0-.37.78,3.75,3.75,0,0,0-.13,1,3.8,3.8,0,0,0,.13,1.06,2.38,2.38,0,0,0,.39.78,1.67,1.67,0,0,0,.61.48,1.83,1.83,0,0,0,.79.17,2.26,2.26,0,0,0,.7-.1,2.35,2.35,0,0,0,.45-.23,2.94,2.94,0,0,0,.3-.22.36.36,0,0,1,.24-.1.24.24,0,0,1,.22.11l.32.42a2.14,2.14,0,0,1-.49.46,2.93,2.93,0,0,1-.58.31,3.58,3.58,0,0,1-.66.19,5.49,5.49,0,0,1-.7.05,2.88,2.88,0,0,1-1.15-.22,2.52,2.52,0,0,1-.92-.66,3,3,0,0,1-.61-1.07,4.21,4.21,0,0,1-.22-1.43,4.26,4.26,0,0,1,.2-1.36,3.15,3.15,0,0,1,.6-1.08,2.66,2.66,0,0,1,1-.7,3.2,3.2,0,0,1,1.32-.26,3.09,3.09,0,0,1,1.22.23,2.88,2.88,0,0,1,.94.63Z"/><path d="M983.05,113.46v5.63h.3a.62.62,0,0,0,.21,0,.48.48,0,0,0,.19-.15l2.08-2.23a.75.75,0,0,1,.19-.17.54.54,0,0,1,.27-.06h1.05L984.91,119a1.3,1.3,0,0,1-.37.34l.21.18.18.23L987.5,123h-1a.53.53,0,0,1-.26,0,.5.5,0,0,1-.19-.17l-2.16-2.7a.62.62,0,0,0-.19-.18.71.71,0,0,0-.29,0h-.33V123h-1.17v-9.57Z"/><path d="M992.32,117.53a.25.25,0,0,1-.24.15.55.55,0,0,1-.22-.07,2,2,0,0,0-.3-.16,2.57,2.57,0,0,0-.43-.17,2,2,0,0,0-.58-.07,1.74,1.74,0,0,0-.53.07,1.27,1.27,0,0,0-.4.21,1,1,0,0,0-.25.3.82.82,0,0,0-.09.38.64.64,0,0,0,.15.42,1.16,1.16,0,0,0,.38.29,3.5,3.5,0,0,0,.55.22l.63.2a6.62,6.62,0,0,1,.62.24,2,2,0,0,1,.55.32,1.53,1.53,0,0,1,.39.48,1.55,1.55,0,0,1,.14.68,2.13,2.13,0,0,1-.16.84,1.88,1.88,0,0,1-.48.67,2.12,2.12,0,0,1-.78.44,3.16,3.16,0,0,1-1.07.17,3.26,3.26,0,0,1-1.24-.23,3.16,3.16,0,0,1-1-.57l.27-.44a.38.38,0,0,1,.12-.13.35.35,0,0,1,.18,0,.43.43,0,0,1,.25.09,3.71,3.71,0,0,0,.32.2,1.89,1.89,0,0,0,.45.2,1.83,1.83,0,0,0,.66.1,1.74,1.74,0,0,0,.59-.09,1.37,1.37,0,0,0,.43-.24,1,1,0,0,0,.25-.34,1.16,1.16,0,0,0,.08-.42.68.68,0,0,0-.15-.45,1.32,1.32,0,0,0-.38-.31,3.94,3.94,0,0,0-.55-.22l-.63-.2c-.22-.07-.43-.14-.64-.23a2.4,2.4,0,0,1-.55-.34,1.47,1.47,0,0,1-.38-.5,1.52,1.52,0,0,1-.15-.71,1.66,1.66,0,0,1,.16-.73,1.76,1.76,0,0,1,.45-.61,2.31,2.31,0,0,1,.74-.42,3,3,0,0,1,1-.16,3.09,3.09,0,0,1,1.17.21,2.8,2.8,0,0,1,.89.56Z"/><path d="M999.53,116.45V123h-.69a.29.29,0,0,1-.31-.24l-.09-.71a3.66,3.66,0,0,1-1,.77,2.6,2.6,0,0,1-1.23.29,2.4,2.4,0,0,1-1-.18,2,2,0,0,1-.69-.5,2.07,2.07,0,0,1-.42-.79,3.64,3.64,0,0,1-.14-1v-4.2h1.16v4.2a1.72,1.72,0,0,0,.34,1.15,1.25,1.25,0,0,0,1,.41,2,2,0,0,0,1-.24,3,3,0,0,0,.82-.67v-4.85Z"/><path d="M1001.36,123v-6.58h.7a.29.29,0,0,1,.31.24l.08.68a3.36,3.36,0,0,1,.82-.74,1.92,1.92,0,0,1,1.05-.29,1.56,1.56,0,0,1,1.08.38,2.07,2.07,0,0,1,.59,1,2.22,2.22,0,0,1,.37-.62,2.08,2.08,0,0,1,1.1-.68,2.74,2.74,0,0,1,.64-.08,2.49,2.49,0,0,1,.93.17,1.68,1.68,0,0,1,.68.49,2.12,2.12,0,0,1,.44.78,3.43,3.43,0,0,1,.15,1.06V123h-1.17v-4.19a1.74,1.74,0,0,0-.34-1.17,1.18,1.18,0,0,0-1-.4,1.4,1.4,0,0,0-.54.1,1.34,1.34,0,0,0-.45.29,1.21,1.21,0,0,0-.31.5,1.76,1.76,0,0,0-.12.68V123h-1.16v-4.19a1.85,1.85,0,0,0-.32-1.18,1.12,1.12,0,0,0-.93-.39,1.4,1.4,0,0,0-.79.23,2.47,2.47,0,0,0-.67.63V123Z"/><path class="cls-2" d="M1121.48,135.53v91.3s-112.6-6.54-196.32,15.58c-87.84,23.2-141.75,48.6-194.33,40.16S626.66,243.7,626.66,243.7V135.53Z"/><path d="M860.3,196.1a10.56,10.56,0,0,1-.68,3.89,8.33,8.33,0,0,1-4.87,4.92,10.39,10.39,0,0,1-3.82.68h-7.09v-19h7.09a10.39,10.39,0,0,1,3.82.68,8.36,8.36,0,0,1,4.87,4.94A10.47,10.47,0,0,1,860.3,196.1Zm-2.64,0a9.8,9.8,0,0,0-.47-3.13,6.63,6.63,0,0,0-1.36-2.33,5.75,5.75,0,0,0-2.12-1.46,7.44,7.44,0,0,0-2.78-.5h-4.52v14.83h4.52a7.44,7.44,0,0,0,2.78-.5,5.85,5.85,0,0,0,2.12-1.45,6.55,6.55,0,0,0,1.36-2.33A9.76,9.76,0,0,0,857.66,196.1Z"/><path d="M862.75,194.06a7.58,7.58,0,0,1,2.4-1.6,7.31,7.31,0,0,1,2.85-.53,5,5,0,0,1,2,.37,4,4,0,0,1,1.47,1,4.45,4.45,0,0,1,.91,1.61,6.7,6.7,0,0,1,.3,2.06v8.59h-1a1.1,1.1,0,0,1-.53-.11.75.75,0,0,1-.29-.44l-.26-1.28a12.62,12.62,0,0,1-1,.87,5.75,5.75,0,0,1-2.24,1,6.73,6.73,0,0,1-1.4.13,4.71,4.71,0,0,1-1.47-.22,3.32,3.32,0,0,1-1.2-.65,3.07,3.07,0,0,1-.81-1.11,3.81,3.81,0,0,1-.3-1.58,3,3,0,0,1,.44-1.53A3.79,3.79,0,0,1,864,199.4a9.12,9.12,0,0,1,2.55-.93,20.23,20.23,0,0,1,3.87-.42V197a3.57,3.57,0,0,0-.67-2.36,2.43,2.43,0,0,0-2-.81,4.36,4.36,0,0,0-1.46.22,6.07,6.07,0,0,0-1,.49c-.29.19-.54.35-.74.5a1.12,1.12,0,0,1-.62.21.69.69,0,0,1-.41-.12,1.22,1.22,0,0,1-.29-.31Zm7.62,5.49a18.4,18.4,0,0,0-2.77.26,7.56,7.56,0,0,0-1.87.53,2.63,2.63,0,0,0-1.05.79,1.63,1.63,0,0,0-.32,1,2.16,2.16,0,0,0,.17.92,1.74,1.74,0,0,0,.47.63,1.85,1.85,0,0,0,.7.35,3,3,0,0,0,.87.12,4.47,4.47,0,0,0,1.14-.13,4,4,0,0,0,1-.36,5.51,5.51,0,0,0,.88-.57,7.17,7.17,0,0,0,.81-.76Z"/><path d="M880.22,205.8a3.23,3.23,0,0,1-2.44-.88,3.57,3.57,0,0,1-.86-2.56v-8.22H875.3A.48.48,0,0,1,875,194a.47.47,0,0,1-.15-.39v-.94l2.2-.28.54-4.15a.6.6,0,0,1,.18-.32.57.57,0,0,1,.37-.13h1.19v4.63h3.88v1.71h-3.88v8.06a1.75,1.75,0,0,0,.41,1.26,1.46,1.46,0,0,0,1.06.41,1.85,1.85,0,0,0,.65-.1,3.45,3.45,0,0,0,.47-.22l.33-.22a.54.54,0,0,1,.25-.1.42.42,0,0,1,.33.23l.69,1.12a4.54,4.54,0,0,1-1.47.9A5,5,0,0,1,880.22,205.8Z"/><path d="M885.26,194.06a7.47,7.47,0,0,1,2.4-1.6,7.31,7.31,0,0,1,2.85-.53,5,5,0,0,1,2,.37,4.2,4.2,0,0,1,1.47,1,4.29,4.29,0,0,1,.9,1.61,6.41,6.41,0,0,1,.31,2.06v8.59h-1.05a1.07,1.07,0,0,1-.53-.11.75.75,0,0,1-.29-.44l-.27-1.28a11.08,11.08,0,0,1-1,.87,6.79,6.79,0,0,1-1.06.64,6.4,6.4,0,0,1-1.19.4,6.67,6.67,0,0,1-1.4.13,4.71,4.71,0,0,1-1.47-.22,3.32,3.32,0,0,1-1.2-.65,2.94,2.94,0,0,1-.8-1.11,3.81,3.81,0,0,1-.3-1.58,3,3,0,0,1,.43-1.53,4,4,0,0,1,1.42-1.31,9.32,9.32,0,0,1,2.56-.93,20,20,0,0,1,3.87-.42V197a3.57,3.57,0,0,0-.67-2.36,2.44,2.44,0,0,0-2-.81,4.36,4.36,0,0,0-1.46.22,5.4,5.4,0,0,0-1,.49l-.75.5a1.09,1.09,0,0,1-.61.21.69.69,0,0,1-.41-.12,1.26,1.26,0,0,1-.3-.31Zm7.62,5.49a18.55,18.55,0,0,0-2.78.26,7.6,7.6,0,0,0-1.86.53,2.5,2.5,0,0,0-1,.79,1.64,1.64,0,0,0-.33,1,2.16,2.16,0,0,0,.18.92,1.74,1.74,0,0,0,.47.63,1.85,1.85,0,0,0,.7.35,3,3,0,0,0,.87.12,4.57,4.57,0,0,0,1.14-.13,4,4,0,0,0,1-.36,5.51,5.51,0,0,0,.88-.57,8.13,8.13,0,0,0,.81-.76Z"/><path class="cls-3" d="M835.8,57.51v.66a.24.24,0,0,1-.06.17.23.23,0,0,1-.19.08h-1.16v2.45h-1V58.42h-4.14a.35.35,0,0,1-.22-.08.36.36,0,0,1-.12-.18l-.12-.6,4.53-6h1.08v6Zm-2.42,0V53.66c0-.11,0-.23,0-.37s0-.27,0-.41L830,57.51Z"/><path class="cls-3" d="M841.58,55.23a3.42,3.42,0,0,1,.94-.77,2.49,2.49,0,0,1,1.21-.28,2.36,2.36,0,0,1,1,.22,2.21,2.21,0,0,1,.79.64,3,3,0,0,1,.5,1,5,5,0,0,1,.17,1.34,5.15,5.15,0,0,1-.2,1.46,3.27,3.27,0,0,1-.56,1.12,2.49,2.49,0,0,1-.89.72,2.7,2.7,0,0,1-1.19.26,2.17,2.17,0,0,1-1.09-.25,2.32,2.32,0,0,1-.78-.69l-.06.6a.28.28,0,0,1-.3.25h-.74V51.29h1.16Zm0,4.05a1.76,1.76,0,0,0,.7.6,1.92,1.92,0,0,0,.84.18,1.68,1.68,0,0,0,1.42-.66,3.2,3.2,0,0,0,.49-1.95,2.86,2.86,0,0,0-.44-1.78,1.48,1.48,0,0,0-1.25-.57,1.86,1.86,0,0,0-1,.26,3,3,0,0,0-.78.73Z"/><path class="cls-3" d="M853.21,54.28l-3.67,8.53a.57.57,0,0,1-.15.21.41.41,0,0,1-.27.08h-.86l1.2-2.62-2.71-6.2h1a.36.36,0,0,1,.24.08.61.61,0,0,1,.12.16l1.76,4.15a3.43,3.43,0,0,1,.17.57c.06-.2.13-.4.2-.58L852,54.52a.36.36,0,0,1,.13-.17.31.31,0,0,1,.21-.07Z"/><path class="cls-3" d="M856.25,61a1.56,1.56,0,0,1-1.2-.44,1.72,1.72,0,0,1-.42-1.25v-4h-.79a.28.28,0,0,1-.18-.06.27.27,0,0,1-.07-.19v-.46l1.08-.14.27-2a.24.24,0,0,1,.09-.15.21.21,0,0,1,.18-.07h.58v2.27h1.9v.84h-1.9v4a.85.85,0,0,0,.2.62.73.73,0,0,0,.52.2,1,1,0,0,0,.32-.05l.23-.1.16-.11a.28.28,0,0,1,.12,0,.22.22,0,0,1,.17.11l.33.55a2.18,2.18,0,0,1-.72.44A2.35,2.35,0,0,1,856.25,61Z"/><path class="cls-3" d="M864.2,59.94a1.84,1.84,0,0,1-.51.45,3.19,3.19,0,0,1-.64.32,5.71,5.71,0,0,1-.71.19,4.37,4.37,0,0,1-.72.06,3.44,3.44,0,0,1-1.26-.23,2.83,2.83,0,0,1-1-.68,3.16,3.16,0,0,1-.66-1.1,4.65,4.65,0,0,1-.23-1.51,3.88,3.88,0,0,1,.21-1.29,3,3,0,0,1,.61-1,2.61,2.61,0,0,1,1-.69,3.13,3.13,0,0,1,1.29-.25,2.82,2.82,0,0,1,1.09.2,2.35,2.35,0,0,1,.87.57,2.54,2.54,0,0,1,.58.92,3.49,3.49,0,0,1,.2,1.25.8.8,0,0,1,0,.37.25.25,0,0,1-.22.09h-4.41a4.19,4.19,0,0,0,.18,1.08,2.1,2.1,0,0,0,.42.77,1.72,1.72,0,0,0,.65.46,2.11,2.11,0,0,0,.85.16,2.72,2.72,0,0,0,.75-.1,3.54,3.54,0,0,0,.54-.22,3.9,3.9,0,0,0,.38-.22.48.48,0,0,1,.27-.1.28.28,0,0,1,.22.11Zm-.94-3.08a2.17,2.17,0,0,0-.11-.74,1.54,1.54,0,0,0-.86-1,2,2,0,0,0-2,.35,2.27,2.27,0,0,0-.61,1.35Z"/><path class="cls-3" d="M869.56,55.37a.28.28,0,0,1-.24.14.46.46,0,0,1-.23-.07l-.3-.16a2.85,2.85,0,0,0-.42-.16,2.05,2.05,0,0,0-.59-.08,1.78,1.78,0,0,0-.53.08,1.2,1.2,0,0,0-.39.2,1,1,0,0,0-.26.3.82.82,0,0,0-.09.38.6.6,0,0,0,.15.42,1.32,1.32,0,0,0,.39.29,3.37,3.37,0,0,0,.54.22l.63.2.63.24a2.41,2.41,0,0,1,.54.32,1.53,1.53,0,0,1,.39.48,1.45,1.45,0,0,1,.15.68,2.14,2.14,0,0,1-.17.84,1.66,1.66,0,0,1-.48.67,2.29,2.29,0,0,1-.78.45,3.11,3.11,0,0,1-1.06.16,3.2,3.2,0,0,1-2.2-.8l.27-.44a.4.4,0,0,1,.13-.13.32.32,0,0,1,.18-.05.45.45,0,0,1,.25.09,3.28,3.28,0,0,0,.31.21,2.74,2.74,0,0,0,.45.2,2.13,2.13,0,0,0,.67.09,1.78,1.78,0,0,0,.59-.09,1.22,1.22,0,0,0,.42-.24.91.91,0,0,0,.25-.34,1.16,1.16,0,0,0,.08-.42.73.73,0,0,0-.14-.45,1.37,1.37,0,0,0-.39-.31,4.84,4.84,0,0,0-.55-.22l-.63-.19a5.87,5.87,0,0,1-.63-.24,2,2,0,0,1-.55-.34,1.57,1.57,0,0,1-.39-.49,1.6,1.6,0,0,1-.14-.72,1.87,1.87,0,0,1,.15-.73,1.93,1.93,0,0,1,.46-.61,2.45,2.45,0,0,1,.73-.42,3,3,0,0,1,1-.15,3.24,3.24,0,0,1,1.16.2,3,3,0,0,1,.9.56Z"/><path class="cls-3" d="M875.35,56.78a10.11,10.11,0,0,0,.36,2.7,9.94,9.94,0,0,0,1,2.5.41.41,0,0,1,0,.31.5.5,0,0,1-.15.17l-.52.31a11.56,11.56,0,0,1-.82-1.48,9.53,9.53,0,0,1-.56-1.48,11,11,0,0,1-.31-1.49,13.22,13.22,0,0,1,0-3.08,10.65,10.65,0,0,1,.31-1.49,9.53,9.53,0,0,1,.56-1.48,12.37,12.37,0,0,1,.82-1.49l.52.32a.54.54,0,0,1,.15.18.39.39,0,0,1,0,.3,10,10,0,0,0-1,2.49A10.23,10.23,0,0,0,875.35,56.78Z"/><path class="cls-3" d="M878.08,54.07a3.42,3.42,0,0,1,.35-1.12,2.58,2.58,0,0,1,.66-.83,2.74,2.74,0,0,1,.92-.5,3.31,3.31,0,0,1,1.11-.17,3.2,3.2,0,0,1,1.09.17,2.4,2.4,0,0,1,.86.48,2.33,2.33,0,0,1,.57.75,2.42,2.42,0,0,1,.2,1,2.39,2.39,0,0,1-.12.79,1.78,1.78,0,0,1-.32.61,2,2,0,0,1-.51.44,3.16,3.16,0,0,1-.67.3,2.57,2.57,0,0,1,1.37.8,2.23,2.23,0,0,1,.45,1.42,2.7,2.7,0,0,1-.24,1.16,2.61,2.61,0,0,1-.66.88,3.08,3.08,0,0,1-1,.55A3.64,3.64,0,0,1,881,61a3.92,3.92,0,0,1-1.27-.18,2.68,2.68,0,0,1-.89-.52,2.39,2.39,0,0,1-.6-.77,5.22,5.22,0,0,1-.4-1l.5-.21a.57.57,0,0,1,.38,0,.33.33,0,0,1,.27.21l.21.44a2.17,2.17,0,0,0,.35.48,2,2,0,0,0,.56.4,2,2,0,0,0,.87.16,2.1,2.1,0,0,0,.86-.16,1.77,1.77,0,0,0,.61-.41,1.72,1.72,0,0,0,.36-.57,1.49,1.49,0,0,0,.13-.61,2.17,2.17,0,0,0-.1-.69,1.15,1.15,0,0,0-.36-.54,2,2,0,0,0-.73-.36,4.43,4.43,0,0,0-1.2-.13v-.84a3.72,3.72,0,0,0,1-.13,1.74,1.74,0,0,0,.68-.34,1.21,1.21,0,0,0,.39-.51,1.76,1.76,0,0,0,.12-.66,1.86,1.86,0,0,0-.13-.7,1.29,1.29,0,0,0-.35-.5,1.4,1.4,0,0,0-.52-.29,2.1,2.1,0,0,0-1.31,0,1.78,1.78,0,0,0-.53.28,1.7,1.7,0,0,0-.61,1,.52.52,0,0,1-.21.3.52.52,0,0,1-.37,0Z"/><path class="cls-3" d="M891.19,59.77a.4.4,0,0,1,.3.11.39.39,0,0,1,.11.28v.71h-6.22v-.4a.57.57,0,0,1,.06-.25.54.54,0,0,1,.16-.24l3-3c.25-.25.47-.49.68-.73a6.23,6.23,0,0,0,.52-.69,3.84,3.84,0,0,0,.33-.72,2.39,2.39,0,0,0,.12-.77,1.91,1.91,0,0,0-.13-.71,1.51,1.51,0,0,0-.36-.52,1.53,1.53,0,0,0-.53-.3,2.27,2.27,0,0,0-.65-.1,2,2,0,0,0-.66.11,1.78,1.78,0,0,0-.53.28,2.05,2.05,0,0,0-.39.44,1.82,1.82,0,0,0-.22.56.48.48,0,0,1-.21.3.53.53,0,0,1-.37,0l-.61-.11a3.21,3.21,0,0,1,.36-1.12,2.58,2.58,0,0,1,.66-.83,2.79,2.79,0,0,1,.91-.5,3.31,3.31,0,0,1,1.11-.17,3.59,3.59,0,0,1,1.11.17,2.69,2.69,0,0,1,.89.51,2.42,2.42,0,0,1,.59.82,2.68,2.68,0,0,1,.21,1.09,3,3,0,0,1-.15,1,3.88,3.88,0,0,1-.42.84,6.51,6.51,0,0,1-.62.79c-.23.26-.47.51-.73.77L887,59.92l.52-.11a3.12,3.12,0,0,1,.52,0Z"/><path class="cls-3" d="M897.72,55.23a3.42,3.42,0,0,1,.94-.77,2.49,2.49,0,0,1,1.21-.28,2.36,2.36,0,0,1,1,.22,2.21,2.21,0,0,1,.79.64,3.24,3.24,0,0,1,.5,1,5,5,0,0,1,.17,1.34,5.15,5.15,0,0,1-.2,1.46,3.27,3.27,0,0,1-.56,1.12,2.49,2.49,0,0,1-.89.72,2.7,2.7,0,0,1-1.19.26,2.17,2.17,0,0,1-1.09-.25,2.32,2.32,0,0,1-.78-.69l-.06.6a.28.28,0,0,1-.3.25h-.74V51.29h1.16Zm0,4.05a1.76,1.76,0,0,0,.7.6,1.9,1.9,0,0,0,.83.18,1.68,1.68,0,0,0,1.43-.66,3.2,3.2,0,0,0,.49-1.95,2.86,2.86,0,0,0-.44-1.78,1.48,1.48,0,0,0-1.25-.57,1.86,1.86,0,0,0-1,.26,3,3,0,0,0-.78.73Z"/><path class="cls-3" d="M905.31,52.21a.83.83,0,0,1-.07.32,1.2,1.2,0,0,1-.18.26,1,1,0,0,1-.27.18.88.88,0,0,1-.64,0,.92.92,0,0,1-.43-.44.83.83,0,0,1-.06-.32.87.87,0,0,1,.06-.32.68.68,0,0,1,.18-.26.64.64,0,0,1,.25-.18.77.77,0,0,1,.64,0,.8.8,0,0,1,.27.18,1,1,0,0,1,.18.26A.88.88,0,0,1,905.31,52.21Zm-.25,2.07v6.59H903.9V54.28Z"/><path class="cls-3" d="M909,61a1.56,1.56,0,0,1-1.2-.44,1.72,1.72,0,0,1-.42-1.25v-4h-.79a.28.28,0,0,1-.18-.06.24.24,0,0,1-.07-.19v-.46l1.08-.14.26-2a.38.38,0,0,1,.09-.15.24.24,0,0,1,.18-.07h.59v2.27h1.9v.84h-1.9v4a.81.81,0,0,0,.2.62.72.72,0,0,0,.52.2,1,1,0,0,0,.31-.05l.23-.1.17-.11a.28.28,0,0,1,.12,0,.21.21,0,0,1,.16.11l.34.55a2.18,2.18,0,0,1-.72.44A2.35,2.35,0,0,1,909,61Z"/><path class="cls-3" d="M915.45,55.37a.26.26,0,0,1-.24.14.43.43,0,0,1-.22-.07l-.3-.16a2.61,2.61,0,0,0-.43-.16,2,2,0,0,0-.58-.08,1.74,1.74,0,0,0-.53.08,1.25,1.25,0,0,0-.4.2,1,1,0,0,0-.25.3.82.82,0,0,0-.09.38.6.6,0,0,0,.15.42,1.16,1.16,0,0,0,.38.29,3.5,3.5,0,0,0,.55.22l.63.2a6.62,6.62,0,0,1,.62.24,2.27,2.27,0,0,1,.55.32,1.53,1.53,0,0,1,.39.48,1.59,1.59,0,0,1,.14.68,2.13,2.13,0,0,1-.16.84,1.88,1.88,0,0,1-.48.67,2.29,2.29,0,0,1-.78.45,3.17,3.17,0,0,1-1.07.16,3.26,3.26,0,0,1-1.24-.22,3.18,3.18,0,0,1-1-.58l.27-.44a.38.38,0,0,1,.12-.13.35.35,0,0,1,.18-.05.45.45,0,0,1,.25.09,3.58,3.58,0,0,0,.32.21,2.4,2.4,0,0,0,.45.2,2.1,2.1,0,0,0,.66.09,1.74,1.74,0,0,0,.59-.09,1.37,1.37,0,0,0,.43-.24,1,1,0,0,0,.25-.34,1.16,1.16,0,0,0,.08-.42.68.68,0,0,0-.15-.45,1.32,1.32,0,0,0-.38-.31,5.72,5.72,0,0,0-.55-.22l-.63-.19c-.22-.07-.43-.15-.64-.24a2.4,2.4,0,0,1-.55-.34,1.54,1.54,0,0,1-.38-.49,1.59,1.59,0,0,1-.15-.72,1.72,1.72,0,0,1,.16-.73,1.76,1.76,0,0,1,.45-.61,2.51,2.51,0,0,1,.74-.42,3,3,0,0,1,1-.15,3.34,3.34,0,0,1,1.17.2,3,3,0,0,1,.89.56Z"/><path class="cls-3" d="M917.92,56.78a10.66,10.66,0,0,0-.35-2.71,10.42,10.42,0,0,0-1-2.49.5.5,0,0,1-.06-.17.28.28,0,0,1,0-.13.36.36,0,0,1,.07-.1.24.24,0,0,1,.09-.08l.51-.32a12.5,12.5,0,0,1,.83,1.49,10.3,10.3,0,0,1,.86,3,11.91,11.91,0,0,1,0,3.08,9.62,9.62,0,0,1-.31,1.49,9.47,9.47,0,0,1-.55,1.48,11.67,11.67,0,0,1-.83,1.48l-.51-.31a.24.24,0,0,1-.09-.08.31.31,0,0,1-.07-.09.33.33,0,0,1,0-.14.44.44,0,0,1,.06-.17,10.33,10.33,0,0,0,1-2.5A10.52,10.52,0,0,0,917.92,56.78Z"/><line class="cls-4" x1="817.52" y1="56.28" x2="632.63" y2="56.28"/><polygon class="cls-5" points="635.44 52.58 633.87 56.28 635.44 59.98 626.66 56.28 635.44 52.58"/><line class="cls-4" x1="928.64" y1="56.28" x2="1115.08" y2="56.28"/><polygon class="cls-5" points="1112.27 59.98 1113.84 56.28 1112.27 52.58 1121.05 56.28 1112.27 59.98"/><line class="cls-7" x1="625.74" y1="135.57" x2="1120.56" y2="135.57"/><path class="cls-3" d="M195.46,27.46h-3.11V4.54h3.11Z"/><path class="cls-3" d="M208.08,4.54a12.66,12.66,0,0,1,3.79.5,7.27,7.27,0,0,1,2.66,1.43,5.9,5.9,0,0,1,1.58,2.24,8,8,0,0,1,.52,2.93,7.54,7.54,0,0,1-.56,2.93,6.43,6.43,0,0,1-1.64,2.29,7.62,7.62,0,0,1-2.68,1.49,11.39,11.39,0,0,1-3.67.54H204.4v8.57h-3.09V4.54Zm0,11.88a7,7,0,0,0,2.35-.35,4.94,4.94,0,0,0,1.71-1,4.2,4.2,0,0,0,1.05-1.51,5.31,5.31,0,0,0,.35-1.94,4.39,4.39,0,0,0-1.35-3.42A5.89,5.89,0,0,0,208.08,7H204.4v9.44Z"/><path class="cls-3" d="M229.89,13.77a8.32,8.32,0,0,1,2.37-2,6,6,0,0,1,3.07-.77,6,6,0,0,1,2.54.53,5.21,5.21,0,0,1,1.94,1.59,7.66,7.66,0,0,1,1.23,2.6,13.23,13.23,0,0,1,.43,3.57,11.17,11.17,0,0,1-.47,3.33,8.25,8.25,0,0,1-1.39,2.67A6.38,6.38,0,0,1,237.4,27a6.54,6.54,0,0,1-2.93.65A5.59,5.59,0,0,1,230,25.78V33h-2.87V11.26h1.71a.69.69,0,0,1,.75.59Zm.15,9.79a4.63,4.63,0,0,0,1.71,1.49,4.84,4.84,0,0,0,2.08.43,4.12,4.12,0,0,0,3.49-1.62,7.52,7.52,0,0,0,1.21-4.6,11.26,11.26,0,0,0-.28-2.72,5.47,5.47,0,0,0-.81-1.87,3.13,3.13,0,0,0-1.29-1.06,4.27,4.27,0,0,0-1.75-.34,4.65,4.65,0,0,0-2.44.64A6.94,6.94,0,0,0,230,15.72Z"/><path class="cls-3" d="M244.69,13.54a9.19,9.19,0,0,1,2.9-1.93A8.86,8.86,0,0,1,251,11a6.09,6.09,0,0,1,2.41.45,4.84,4.84,0,0,1,1.78,1.24,5.41,5.41,0,0,1,1.09,1.94,8.25,8.25,0,0,1,.36,2.5V27.46h-1.26a1.25,1.25,0,0,1-.64-.13.9.9,0,0,1-.35-.54l-.32-1.53a15.62,15.62,0,0,1-1.25,1,6.91,6.91,0,0,1-2.71,1.25,8,8,0,0,1-1.69.17,6.08,6.08,0,0,1-1.78-.26,4.06,4.06,0,0,1-1.44-.8,3.69,3.69,0,0,1-1-1.33,4.68,4.68,0,0,1-.36-1.91,3.59,3.59,0,0,1,.53-1.85A4.63,4.63,0,0,1,246.13,20a11.42,11.42,0,0,1,3.09-1.13,23.57,23.57,0,0,1,4.67-.5V17.1a4.32,4.32,0,0,0-.82-2.86,2.91,2.91,0,0,0-2.38-1,5.07,5.07,0,0,0-1.77.27,6.4,6.4,0,0,0-1.23.59c-.35.22-.65.41-.9.59a1.24,1.24,0,0,1-.74.26.84.84,0,0,1-.5-.15,1.55,1.55,0,0,1-.35-.37Zm9.2,6.63a22.68,22.68,0,0,0-3.35.31,9.65,9.65,0,0,0-2.26.65,3.06,3.06,0,0,0-1.26.94,2,2,0,0,0-.39,1.22,2.84,2.84,0,0,0,.2,1.1,2,2,0,0,0,.57.76,2.2,2.2,0,0,0,.85.43,3.92,3.92,0,0,0,1.05.14,5.81,5.81,0,0,0,1.37-.15,5.21,5.21,0,0,0,1.18-.44,6.41,6.41,0,0,0,1.06-.69,10.27,10.27,0,0,0,1-.91Z"/><path class="cls-3" d="M272.29,14.14a1.69,1.69,0,0,1-.26.27.58.58,0,0,1-.35.09.93.93,0,0,1-.53-.2c-.19-.13-.43-.28-.71-.44a6.13,6.13,0,0,0-1-.44,5.55,5.55,0,0,0-3.62.23,4,4,0,0,0-1.53,1.22,5.64,5.64,0,0,0-.93,1.94,9.5,9.5,0,0,0-.31,2.54,9.1,9.1,0,0,0,.34,2.62,5.57,5.57,0,0,0,.95,1.92,4,4,0,0,0,1.49,1.18,4.58,4.58,0,0,0,2,.41,4.9,4.9,0,0,0,1.71-.25,4.78,4.78,0,0,0,1.11-.55c.29-.2.54-.39.74-.55a.88.88,0,0,1,.58-.25.62.62,0,0,1,.54.27l.8,1a5.53,5.53,0,0,1-1.2,1.12A7.35,7.35,0,0,1,269,27.54a9.85,9.85,0,0,1-1.73.15,7.13,7.13,0,0,1-2.82-.56,6.51,6.51,0,0,1-2.26-1.63,7.59,7.59,0,0,1-1.51-2.61,10.79,10.79,0,0,1-.54-3.54,10.83,10.83,0,0,1,.5-3.34,7.67,7.67,0,0,1,1.47-2.65,6.77,6.77,0,0,1,2.39-1.74,8.09,8.09,0,0,1,3.25-.62,7.64,7.64,0,0,1,3,.55A7.25,7.25,0,0,1,273,13.11Z"/><path class="cls-3" d="M279.15,3.9V17.77h.74a1.45,1.45,0,0,0,.54-.09,1.36,1.36,0,0,0,.45-.36L286,11.83a2,2,0,0,1,.47-.42,1.3,1.3,0,0,1,.67-.15h2.57l-6,6.35a3.86,3.86,0,0,1-.93.85,2.7,2.7,0,0,1,.52.44,4.36,4.36,0,0,1,.44.56l6.33,8h-2.54a1.48,1.48,0,0,1-.63-.12,1,1,0,0,1-.46-.44l-5.33-6.64a1.26,1.26,0,0,0-.47-.44,1.81,1.81,0,0,0-.71-.1h-.82v7.74h-2.86V3.9Z"/><path class="cls-3" d="M304.79,25.19a5.42,5.42,0,0,1-1.27,1.11,7.42,7.42,0,0,1-1.57.78,11.12,11.12,0,0,1-1.74.46,10.78,10.78,0,0,1-1.78.15,8.17,8.17,0,0,1-3.09-.57,6.78,6.78,0,0,1-2.45-1.66,7.7,7.7,0,0,1-1.61-2.72,11.08,11.08,0,0,1-.57-3.71,9.41,9.41,0,0,1,.52-3.17,7.36,7.36,0,0,1,1.49-2.55,6.87,6.87,0,0,1,2.39-1.69,7.78,7.78,0,0,1,3.16-.62,7.24,7.24,0,0,1,2.7.49,5.88,5.88,0,0,1,2.14,1.41,6.31,6.31,0,0,1,1.42,2.27,8.69,8.69,0,0,1,.51,3.08,1.91,1.91,0,0,1-.14.89.61.61,0,0,1-.55.23H293.52A9.44,9.44,0,0,0,294,22a5.5,5.5,0,0,0,1,1.9,4.37,4.37,0,0,0,1.6,1.13,5.54,5.54,0,0,0,2.08.38,6,6,0,0,0,1.85-.25,8.66,8.66,0,0,0,1.34-.54c.37-.19.68-.37.93-.53a1.21,1.21,0,0,1,.65-.25.63.63,0,0,1,.55.27Zm-2.31-7.6a5.5,5.5,0,0,0-.28-1.81,4.1,4.1,0,0,0-.81-1.43,3.73,3.73,0,0,0-1.31-.93,4.54,4.54,0,0,0-1.74-.32,4.34,4.34,0,0,0-3.24,1.19,5.51,5.51,0,0,0-1.48,3.3Z"/><path class="cls-3" d="M313.39,27.72a3.92,3.92,0,0,1-2.95-1.07,4.29,4.29,0,0,1-1-3.09V13.64h-2a.63.63,0,0,1-.43-.15.58.58,0,0,1-.18-.47V11.88l2.66-.34.65-5a.76.76,0,0,1,.22-.4.63.63,0,0,1,.44-.15h1.44v5.59H317v2.06h-4.69v9.73a2.07,2.07,0,0,0,.49,1.52,1.73,1.73,0,0,0,1.28.49,2.28,2.28,0,0,0,.78-.12,3,3,0,0,0,.57-.26l.41-.26a.53.53,0,0,1,.29-.12.49.49,0,0,1,.4.27l.83,1.36a5.26,5.26,0,0,1-1.77,1.08A6.1,6.1,0,0,1,313.39,27.72Z"/><path class="cls-3" d="M811.33,26a6.44,6.44,0,0,0,2.55-.48,5.27,5.27,0,0,0,1.89-1.35A5.75,5.75,0,0,0,817,22.06a8.21,8.21,0,0,0,.41-2.64V5.49h3.08V19.42a10.5,10.5,0,0,1-.63,3.68A8.5,8.5,0,0,1,818,26,8.32,8.32,0,0,1,815.14,28a10.55,10.55,0,0,1-7.61,0A8.27,8.27,0,0,1,804.65,26a8.52,8.52,0,0,1-1.82-2.94,10.5,10.5,0,0,1-.63-3.68V5.49h3.09V19.41a8.11,8.11,0,0,0,.4,2.63,6,6,0,0,0,1.19,2.07,5.22,5.22,0,0,0,1.9,1.35A6.27,6.27,0,0,0,811.33,26Z"/><path class="cls-3" d="M845.89,17a13,13,0,0,1-.81,4.69,10.55,10.55,0,0,1-2.31,3.61,10.28,10.28,0,0,1-3.57,2.33,12.49,12.49,0,0,1-4.62.82H826V5.49h8.56a12.49,12.49,0,0,1,4.62.82,10.17,10.17,0,0,1,3.57,2.34,10.5,10.5,0,0,1,2.31,3.62A13,13,0,0,1,845.89,17Zm-3.18,0a11.37,11.37,0,0,0-.58-3.78,7.71,7.71,0,0,0-1.63-2.81,6.86,6.86,0,0,0-2.56-1.76A8.78,8.78,0,0,0,834.58,8h-5.46V25.9h5.46a8.78,8.78,0,0,0,3.36-.61,7,7,0,0,0,2.56-1.75,7.71,7.71,0,0,0,1.63-2.81A11.31,11.31,0,0,0,842.71,17Z"/><path class="cls-3" d="M857.12,5.49a12.57,12.57,0,0,1,3.79.5,7.27,7.27,0,0,1,2.66,1.43,5.8,5.8,0,0,1,1.58,2.24,7.84,7.84,0,0,1,.52,2.93,7.54,7.54,0,0,1-.56,2.93,6.19,6.19,0,0,1-1.64,2.28,7.52,7.52,0,0,1-2.67,1.5,11.45,11.45,0,0,1-3.68.54h-3.68v8.57h-3.08V5.49Zm0,11.88a7,7,0,0,0,2.35-.35,4.77,4.77,0,0,0,1.71-1,4.2,4.2,0,0,0,1.05-1.51,5.31,5.31,0,0,0,.35-1.94,4.39,4.39,0,0,0-1.35-3.42,5.89,5.89,0,0,0-4.11-1.24h-3.68v9.44Z"/><path class="cls-3" d="M885.65,14.88a.62.62,0,0,1-.59.35,1.08,1.08,0,0,1-.54-.18c-.21-.11-.45-.25-.75-.39a6.83,6.83,0,0,0-1-.4,5,5,0,0,0-1.43-.18,4.3,4.3,0,0,0-1.3.18,3.29,3.29,0,0,0-1,.5,2.44,2.44,0,0,0-.62.75,2,2,0,0,0-.22.92,1.56,1.56,0,0,0,.37,1,2.87,2.87,0,0,0,1,.72,8,8,0,0,0,1.34.53l1.55.5c.52.18,1,.37,1.54.58a5.76,5.76,0,0,1,1.34.81,3.66,3.66,0,0,1,1,1.17,3.61,3.61,0,0,1,.36,1.67,5.29,5.29,0,0,1-.41,2.08A4.44,4.44,0,0,1,885,27.17a5.62,5.62,0,0,1-1.92,1.1,7.8,7.8,0,0,1-2.62.4,8.11,8.11,0,0,1-3.07-.55A7.74,7.74,0,0,1,875,26.7l.67-1.09a1.16,1.16,0,0,1,.3-.32.88.88,0,0,1,.45-.11,1.06,1.06,0,0,1,.61.23c.21.14.47.31.78.49a5.81,5.81,0,0,0,1.11.5,5.1,5.1,0,0,0,1.63.22,4.59,4.59,0,0,0,1.46-.21,3.18,3.18,0,0,0,1-.59,2.3,2.3,0,0,0,.61-.85,2.51,2.51,0,0,0,.2-1,1.68,1.68,0,0,0-.36-1.11,2.93,2.93,0,0,0-.95-.76,8.62,8.62,0,0,0-1.35-.54c-.51-.15-1-.32-1.55-.49s-1-.36-1.56-.58a5.73,5.73,0,0,1-1.35-.82,3.87,3.87,0,0,1-.95-1.23,3.93,3.93,0,0,1-.36-1.77,4.32,4.32,0,0,1,1.5-3.28,5.61,5.61,0,0,1,1.81-1,7.41,7.41,0,0,1,2.45-.38,7.81,7.81,0,0,1,2.87.5,6.82,6.82,0,0,1,2.2,1.39Z"/><path class="cls-3" d="M903.22,26.14A5.18,5.18,0,0,1,902,27.25a7.49,7.49,0,0,1-1.58.78,11.3,11.3,0,0,1-1.73.46,10.78,10.78,0,0,1-1.78.15,8.26,8.26,0,0,1-3.1-.57,6.75,6.75,0,0,1-2.44-1.66,7.64,7.64,0,0,1-1.61-2.72,10.82,10.82,0,0,1-.58-3.71,9.37,9.37,0,0,1,.52-3.17,7.54,7.54,0,0,1,1.5-2.55,6.83,6.83,0,0,1,2.38-1.69,7.7,7.7,0,0,1,3.17-.62,7.24,7.24,0,0,1,2.7.49,6.07,6.07,0,0,1,2.14,1.4A6.74,6.74,0,0,1,903,16.12a8.65,8.65,0,0,1,.51,3.08,1.76,1.76,0,0,1-.15.89.58.58,0,0,1-.54.23H892a9.46,9.46,0,0,0,.42,2.67,5.22,5.22,0,0,0,1,1.89A4.2,4.2,0,0,0,895,26a5.51,5.51,0,0,0,2.08.38,6.32,6.32,0,0,0,1.85-.25,9.62,9.62,0,0,0,1.33-.54,10.22,10.22,0,0,0,.94-.53,1.21,1.21,0,0,1,.65-.25.63.63,0,0,1,.54.27Zm-2.3-7.6a5.84,5.84,0,0,0-.28-1.82,4.17,4.17,0,0,0-.82-1.42,3.69,3.69,0,0,0-1.3-.93,4.92,4.92,0,0,0-5,.87,5.63,5.63,0,0,0-1.48,3.3Z"/><path class="cls-3" d="M920.64,12.84V13.9c0,.35-.22.58-.67.67l-1.84.24a5,5,0,0,1,.55,2.34,4.88,4.88,0,0,1-.46,2.15A4.79,4.79,0,0,1,917,21,5.4,5.4,0,0,1,915,22a7.55,7.55,0,0,1-2.43.37,8.26,8.26,0,0,1-2.14-.27,3,3,0,0,0-.79.68,1.2,1.2,0,0,0-.27.73,1,1,0,0,0,.47.87,3.28,3.28,0,0,0,1.24.42,12.61,12.61,0,0,0,1.76.16c.65,0,1.33.06,2,.11a16.64,16.64,0,0,1,2,.25,5.71,5.71,0,0,1,1.75.57A3.38,3.38,0,0,1,919.9,27a3.19,3.19,0,0,1,.47,1.83,4.18,4.18,0,0,1-.52,2,5.31,5.31,0,0,1-1.49,1.74A7.73,7.73,0,0,1,916,33.8a10.46,10.46,0,0,1-3.19.45,11.92,11.92,0,0,1-3.1-.35,7.28,7.28,0,0,1-2.21-.94,4.08,4.08,0,0,1-1.32-1.37A3.3,3.3,0,0,1,905.7,30a3,3,0,0,1,.75-2,5.21,5.21,0,0,1,2.07-1.32,3.08,3.08,0,0,1-1.15-.86A2.29,2.29,0,0,1,907,24.3a2.17,2.17,0,0,1,.13-.73,2.7,2.7,0,0,1,.39-.75,3.58,3.58,0,0,1,.65-.71,3.83,3.83,0,0,1,.89-.59,5,5,0,0,1-1.87-1.79,4.86,4.86,0,0,1-.67-2.58,5,5,0,0,1,.45-2.15,4.71,4.71,0,0,1,1.28-1.65,5.93,5.93,0,0,1,1.94-1,8.1,8.1,0,0,1,2.47-.37,7.71,7.71,0,0,1,2,.24,6.49,6.49,0,0,1,1.67.67Zm-2.89,16.45a1.36,1.36,0,0,0-.34-1,2.25,2.25,0,0,0-.9-.57,5.84,5.84,0,0,0-1.32-.3c-.5-.06-1-.1-1.59-.13l-1.71-.1c-.57,0-1.13-.09-1.66-.16a4.54,4.54,0,0,0-1.47,1.05,2.17,2.17,0,0,0-.56,1.48,1.9,1.9,0,0,0,.28,1,2.32,2.32,0,0,0,.85.82,5,5,0,0,0,1.45.54,8.93,8.93,0,0,0,2.06.2A9.19,9.19,0,0,0,914.9,32a5,5,0,0,0,1.55-.59,2.81,2.81,0,0,0,1-.91A2.08,2.08,0,0,0,917.75,29.29Zm-5.14-8.8a4.37,4.37,0,0,0,1.52-.24,3.08,3.08,0,0,0,1.11-.67,2.74,2.74,0,0,0,.67-1,3.73,3.73,0,0,0,.22-1.32,3.17,3.17,0,0,0-.9-2.37,4.36,4.36,0,0,0-5.25,0,3.17,3.17,0,0,0-.9,2.37,3.52,3.52,0,0,0,.23,1.32,2.77,2.77,0,0,0,.68,1,3.13,3.13,0,0,0,1.1.67A4.45,4.45,0,0,0,912.61,20.49Z"/><path class="cls-3" d="M923.6,28.41V12.21h1.72a.7.7,0,0,1,.75.59l.21,1.66a8.16,8.16,0,0,1,2-1.81,4.76,4.76,0,0,1,2.59-.7,3.79,3.79,0,0,1,2.65.91A5.13,5.13,0,0,1,935,15.33a5.24,5.24,0,0,1,.9-1.53,5.25,5.25,0,0,1,2.7-1.66,6.5,6.5,0,0,1,1.58-.19,5.87,5.87,0,0,1,2.28.41,4.55,4.55,0,0,1,1.7,1.19,5.21,5.21,0,0,1,1.06,1.93,8.35,8.35,0,0,1,.37,2.61V28.41h-2.87V18.09a4.3,4.3,0,0,0-.83-2.88,3,3,0,0,0-2.4-1,3.5,3.5,0,0,0-1.33.25,3.19,3.19,0,0,0-1.12.73,3.43,3.43,0,0,0-.76,1.21,4.77,4.77,0,0,0-.28,1.68V28.41h-2.86V18.09a4.55,4.55,0,0,0-.78-2.91,2.8,2.8,0,0,0-2.29-1,3.53,3.53,0,0,0-2,.57,6.43,6.43,0,0,0-1.65,1.54V28.41Z"/><path class="cls-3" d="M963.08,26.14a5.42,5.42,0,0,1-1.27,1.11,7.42,7.42,0,0,1-1.57.78,11.12,11.12,0,0,1-1.74.46,10.78,10.78,0,0,1-1.78.15,8.17,8.17,0,0,1-3.09-.57,6.78,6.78,0,0,1-2.45-1.66,7.79,7.79,0,0,1-1.61-2.72A11.08,11.08,0,0,1,949,20a9.37,9.37,0,0,1,.52-3.17A7.36,7.36,0,0,1,951,14.26a6.87,6.87,0,0,1,2.39-1.69,7.63,7.63,0,0,1,3.17-.62,7.19,7.19,0,0,1,2.69.49,6.11,6.11,0,0,1,2.15,1.4,6.57,6.57,0,0,1,1.41,2.28,8.65,8.65,0,0,1,.51,3.08,1.79,1.79,0,0,1-.14.89.61.61,0,0,1-.55.23H951.81a9.44,9.44,0,0,0,.43,2.67,5.22,5.22,0,0,0,1,1.89A4.17,4.17,0,0,0,954.88,26a5.54,5.54,0,0,0,2.08.38,6.22,6.22,0,0,0,1.85-.25,9.29,9.29,0,0,0,1.34-.54c.37-.19.68-.37.93-.53a1.21,1.21,0,0,1,.65-.25.63.63,0,0,1,.55.27Zm-2.31-7.6a5.56,5.56,0,0,0-.28-1.82,4.14,4.14,0,0,0-.81-1.42,3.73,3.73,0,0,0-1.31-.93,4.9,4.9,0,0,0-5,.87,5.51,5.51,0,0,0-1.48,3.3Z"/><path class="cls-3" d="M969.51,14.56a8,8,0,0,1,1.12-1.07,7.33,7.33,0,0,1,1.25-.83,7,7,0,0,1,1.41-.53A6.84,6.84,0,0,1,974.9,12a5.85,5.85,0,0,1,2.34.44,4.46,4.46,0,0,1,1.7,1.25,5.46,5.46,0,0,1,1,1.94,8.32,8.32,0,0,1,.35,2.51V28.41h-2.86V18.09a4.36,4.36,0,0,0-.84-2.85,3.11,3.11,0,0,0-2.55-1,4.75,4.75,0,0,0-2.36.61,7.6,7.6,0,0,0-2,1.65V28.41h-2.86V12.21h1.71a.69.69,0,0,1,.75.59Z"/><path class="cls-3" d="M989.43,28.67a3.91,3.91,0,0,1-2.95-1.07,4.29,4.29,0,0,1-1-3.09V14.59h-2a.64.64,0,0,1-.43-.15.59.59,0,0,1-.18-.48V12.83l2.66-.34.66-5a.71.71,0,0,1,.21-.4.63.63,0,0,1,.44-.15h1.44v5.59H993v2.06h-4.69v9.73a2.08,2.08,0,0,0,.5,1.52,1.73,1.73,0,0,0,1.28.49,2.18,2.18,0,0,0,.77-.12,3.84,3.84,0,0,0,.57-.26l.41-.26a.53.53,0,0,1,.3-.12.49.49,0,0,1,.4.27l.83,1.36a5.21,5.21,0,0,1-1.78,1.08A6,6,0,0,1,989.43,28.67Z"/><polygon class="cls-8" points="497.56 147.33 624.19 72.82 624.19 243.55 497.56 239.61 497.56 147.33"/></svg>